<svg width="75" height="99" viewBox="0 0 75 99" fill="none" xmlns="http://www.w3.org/2000/svg"><path d="M14.164 77.3089V39.7549C14.5899 36.1826 16.4435 29.7336 20.7925 24.7424M61.387 76.5515C61.4716 66.3302 61.5901 44.6611 61.387 39.7549C61.2442 36.3065 59.5563 29.7881 54.5967 24.7424M29.8415 68.5023C25.5043 71.1854 15.1542 77.2287 8.45157 79.9373C1.74896 82.646 1.55431 89.9244 2.29482 93.225C2.29482 96.4447 5.2145 96.9515 6.67435 96.8025C24.4253 96.9515 61.3235 97.1602 66.909 96.8025C72.4945 96.4447 73.2562 94.2684 72.9388 93.225C73.0912 85.2013 68.9824 81.0234 66.909 79.9373L45.3921 68.5023M29.8415 68.5023L37.7755 82.3649L45.3921 68.5023M29.8415 68.5023V61.5574M45.3921 68.5023V60.4934M29.8415 61.5574C25.9757 56.4257 23.127 49.9742 21.8441 46.2071C24.5099 46.2071 31.1237 45.5682 36.2522 43.0129C41.3807 40.4576 45.5402 33.5156 46.9789 30.3641C48.1849 31.8973 50.9903 36.8163 52.5644 44.2267C53.5431 48.8344 49.7466 55.1627 45.3921 60.4934M29.8415 61.5574C32.1599 64.6349 34.844 67.2378 37.7755 68.5023C39.888 66.6096 42.7433 63.7361 45.3921 60.4934M20.7925 24.7424C24.2208 20.8079 29.1997 17.7791 36.2522 17.7791C44.8925 17.7791 50.7359 20.8145 54.5967 24.7424M20.7925 24.7424L14.164 9.21879C17.9512 6.5357 27.6455 2 36.2522 2C45.3921 2 55.2937 4.91732 59.5463 7.04676C58.8489 10.3474 57.035 20.245 54.5967 24.7424" stroke="#1F5460" stroke-opacity="0.9" stroke-width="3"/><rect x="35" y="7" width="4" height="8" rx="2" fill="#1F5460" fill-opacity="0.9"/><rect x="41.3452" y="9.50711" width="3.17514" height="8.36394" rx="1.58757" transform="rotate(90.6165 41.3452 9.50711)" fill="#1F5460" fill-opacity="0.9"/></svg>