<svg width="17" height="18" viewBox="0 0 17 18" fill="none" xmlns="http://www.w3.org/2000/svg"><path d="M4.73306 0C4.73306 0 5.44078 0.743235 6.85619 2.47745C8.27161 4.21167 4.73307 5.91973 4.73307 6.93686C4.73307 7.954 9.84322 13.1305 10.8665 13.1305C11.8898 13.1305 12.694 11.0534 13.4615 10.9008C14.2289 10.7482 14.8769 11.3963 15.5846 12.1395C16.2923 12.8827 17 13.626 17 14.1215C17 14.617 16.0995 16.6438 13.9333 17.5899C11.4353 18.6809 8.90281 17.4205 6.85619 15.8557C3.77923 13.5031 1.78591 11.266 0.25092 6.68912C-0.906845 3.23697 2.17478 8.0251e-06 4.73306 0Z" fill="white"/></svg>