<svg width="60" height="73" viewBox="0 0 60 73" fill="none" xmlns="http://www.w3.org/2000/svg">
<path d="M15.3764 56.9966C19.4304 69.5187 32.3412 72.2083 38.2898 71.9878C54.5936 71.9878 55.0342 61.8467 56.1358 58.3194C57.2374 54.792 59 27.4551 59 25.6914C59 23.9277 58.7797 21.9436 56.1358 21.5027C54.0207 21.15 52.9044 24.1482 52.6107 25.6914C52.0232 28.5574 50.8481 35.0389 50.8481 38.0371C50.8481 41.0354 48.9164 40.1315 49.0856 38.0371C49.6731 30.762 50.8481 15.6826 50.8481 13.5662C50.8481 10.9207 50.8481 8.93653 47.5433 8.49561C44.8995 8.14287 43.651 11.729 43.3572 13.5662C42.99 19.4451 42.1675 31.8202 41.815 34.2893C41.4624 36.7585 40.0524 36.2735 40.0524 34.2893V5.62963C40.1258 4.08642 39.4796 1 36.3069 1C33.1343 1 32.488 4.08642 32.5615 5.62963C32.7818 12.0964 33.0902 26.2646 32.5615 31.2029C32.0327 36.1412 30.3583 34.2893 30.3583 31.2029C29.9911 25.324 29.2567 12.993 29.2567 10.7002C29.2567 7.83422 29.2567 5.62963 25.5112 5.62963C21.9644 5.62963 22.5001 8.93652 21.9861 10.7002V36.9348C23.0877 42.6668 19.3422 43.1077 16.6984 42.4463C14.0545 41.7849 13.3936 34.5098 5.90264 36.9348C-1.58828 39.3599 0.394613 43.1077 5.90264 46.1941C10.3091 48.6633 14.0545 54.4246 15.3764 56.9966Z" fill="#0C2E35" stroke="#0C2E35"/>
<g filter="url(#filter0_d_867_50)">
<path d="M26.2158 48.0073C24.5962 52.8156 32.4779 58.4977 36.9948 61C47.7738 56.3804 49.6216 48.8735 46.8499 45.9863C42.8923 41.8638 38.8426 45.1201 37.3028 47.1412C35.147 43.6765 28.0636 42.5215 26.2158 48.0073Z" fill="#DDE8F1"/>
<path d="M26.2158 48.0073C24.5962 52.8156 32.4779 58.4977 36.9948 61C47.7738 56.3804 49.6216 48.8735 46.8499 45.9863C42.8923 41.8638 38.8426 45.1201 37.3028 47.1412C35.147 43.6765 28.0636 42.5215 26.2158 48.0073Z" stroke="#DDE8F1" stroke-width="2"/>
</g>
<defs>
<filter id="filter0_d_867_50" x="20.9998" y="43" width="31.9996" height="27.1121" filterUnits="userSpaceOnUse" color-interpolation-filters="sRGB">
<feFlood flood-opacity="0" result="BackgroundImageFix"/>
<feColorMatrix in="SourceAlpha" type="matrix" values="0 0 0 0 0 0 0 0 0 0 0 0 0 0 0 0 0 0 127 0" result="hardAlpha"/>
<feOffset dy="4"/>
<feGaussianBlur stdDeviation="2"/>
<feComposite in2="hardAlpha" operator="out"/>
<feColorMatrix type="matrix" values="0 0 0 0 0 0 0 0 0 0 0 0 0 0 0 0 0 0 0.25 0"/>
<feBlend mode="normal" in2="BackgroundImageFix" result="effect1_dropShadow_867_50"/>
<feBlend mode="normal" in="SourceGraphic" in2="effect1_dropShadow_867_50" result="shape"/>
</filter>
</defs>
</svg>
