<svg width="165" height="85" viewBox="0 0 165 85" fill="none" xmlns="http://www.w3.org/2000/svg">
<path d="M22.4348 24H42.9689L59 41.092L52.6957 47.8576L41.8882 37.1751V51.5964L50.8944 83.1098H40.6273L33.0621 62.457L25.4969 84H15.2298L24.236 51.5964V37.1751L6.58385 53.911L1 47.8576L22.4348 24Z" fill="#0C2E35" stroke="#0C2E35"/>
<ellipse cx="32.5" cy="12" rx="11.5" ry="12" fill="#0C2E35"/>
<path d="M74.4348 24H94.9689L111 41.092L104.696 47.8576L93.8882 37.1751V51.5964L102.894 83.1098H92.6273L85.0621 62.457L77.4969 84H67.2298L76.236 51.5964V37.1751L58.5839 53.911L53 47.8576L74.4348 24Z" fill="#1F5460" stroke="#1F5460"/>
<circle cx="83" cy="12" r="12" fill="#1F5460"/>
<path d="M123.435 24H143.969L164 46.5L156 53.911L142.888 37.1751V51.5964L151.894 83.1098H141.627L134.062 62.457L126.497 84H116.23L125.236 51.5964V37.1751L107.584 53.911L102 47.8576L123.435 24Z" fill="#0C2E35" stroke="#0C2E35"/>
<ellipse cx="135" cy="12" rx="11" ry="12" fill="#0C2E35"/>
</svg>
