<svg width="51" height="51" viewBox="0 0 51 51" fill="none" xmlns="http://www.w3.org/2000/svg">
<path d="M0 0.0725139V21.3602C1.42663 22.1686 9.30707 24.3917 8.0163 21.3602C6.72554 18.3287 7.74457 18.2614 10.2582 17.9919C12.7717 17.7224 14.3342 18.1266 12.7717 21.3602C11.2092 24.5938 18.75 22.236 19.4973 21.9665C20.2446 21.697 20.7201 21.3602 20.7201 21.0234C20.7201 20.6865 19.4973 17.9245 19.4973 15.9709C19.4973 14.0173 19.837 13.1415 21.3995 13.9499C22.962 14.7583 25.4755 14.6236 26.087 10.649C26.5761 7.46931 22.9846 7.90944 21.8071 8.15644C20.0408 9.57113 19.7011 8.02171 19.4973 6.74176C19.3342 5.71779 20.471 1.8914 21.0598 0.409344L0 0.0725139Z" fill="#0C2E35"/>
<path d="M50 0.47671L49.3207 21.1581C45.856 19.0697 40.1495 19.0697 41.8478 21.7644C43.5462 24.459 41.2364 24.9306 38.9266 24.998C36.6168 25.0653 34.5109 23.4485 35.9375 22.1686C37.3641 20.8886 37.1603 20.0129 35.5299 19.6087C34.2255 19.2853 30.7745 20.0578 29.212 20.4844C29.0082 20.2374 28.4783 19.218 27.9891 17.1161C27.3777 14.4889 27.4457 11.8616 29.212 13.0742C30.9783 14.2868 33.2201 12.4005 32.8125 9.16694C32.4864 6.58008 30.2763 7.28068 29.212 7.95435C26.2772 7.95435 27.9891 3.19381 29.212 0.81354C29.4837 -0.102638 30.0951 -0.0622187 30.3668 0.0725135L50 0.47671Z" fill="#0C2E35"/>
<path d="M50.9976 48.3684L50.2986 27.0044C48.8403 26.24 40.8587 24.2677 42.2536 27.2677C43.6485 30.2676 42.6281 30.3687 40.1143 30.7217C37.6006 31.0746 36.0192 30.7203 37.4811 27.4238C38.9431 24.1274 31.4527 26.7412 30.7116 27.0362C29.9705 27.3312 29.5043 27.6848 29.5154 28.0228C29.5264 28.3609 30.8443 31.0926 30.9085 33.0532C30.9726 35.0139 30.6605 35.9039 29.0658 35.1439C27.4712 34.3839 24.953 34.6017 24.4699 38.6106C24.0835 41.8177 27.6734 41.2581 28.847 40.9715C30.5732 39.4938 30.9649 41.0376 31.2115 42.3155C31.4088 43.3377 30.3935 47.2152 29.8513 48.7219L50.9976 48.3684Z" fill="#0C2E35"/>
<path d="M0.805236 49.6045L0.80793 28.8267C4.35359 30.8088 10.0806 30.6214 8.28762 27.9729C6.49469 25.3244 8.79726 24.7753 11.1131 24.6318C13.4289 24.4884 15.5956 26.0418 14.2058 27.3732C12.8161 28.7046 13.0494 29.5768 14.699 29.9289C16.0186 30.2106 19.4567 29.322 21.0108 28.8425C21.2234 29.0837 21.7887 30.0895 22.3486 32.1828C23.0485 34.7994 23.0665 37.4383 21.2541 36.2793C19.4417 35.1204 17.2537 37.087 17.769 40.3188C18.1812 42.9042 20.3762 42.1285 21.4222 41.4175C24.3675 41.3211 22.8057 46.155 21.6567 48.5839C21.4141 49.5123 20.7991 49.4918 20.522 49.3655L0.805236 49.6045Z" fill="#0C2E35"/>
</svg>
