<svg width="90" height="84" viewBox="0 0 90 84" fill="none" xmlns="http://www.w3.org/2000/svg">
<path d="M55.0544 31C45.1511 33.3807 36 41.5251 36 58.3151C36 72.975 51.7533 82.2054 61.0716 81.9965C70.3899 81.7877 86.0258 76.8429 87.8982 58.3151C89.1518 45.9105 78.5382 32.8795 71.8524 31.6265" stroke="#1F5460" stroke-opacity="0.9" stroke-width="3" stroke-linejoin="round"/>
<path d="M79.5 56C79.5 65.0742 71.9278 72.5 62.5 72.5C53.0722 72.5 45.5 65.0742 45.5 56C45.5 46.9258 53.0722 39.5 62.5 39.5C71.9278 39.5 79.5 46.9258 79.5 56Z" stroke="#1F5460" stroke-opacity="0.9" stroke-width="3" stroke-linejoin="round"/>
<path d="M39.7326 78.3673C27.476 85.0057 3.3894 79.2441 2.08736 59.3291C0.678875 37.7858 16.5952 29.6444 28.6016 29.6444C34.7299 29.6444 39.7326 32.7757 39.7326 32.7757M33.8545 70.9775C28.2264 72.6057 15.8948 73.0566 11.5925 61.8341C6.21461 47.8059 19.5969 39.5393 24.0992 38.7878C27.7011 38.1866 32.1035 39.5393 33.8545 40.2908M64.621 35.1555C64.496 32.8174 65.7967 27.9159 72 27.0141M64.621 35.1555C64.621 30.2456 60.3687 28.0996 58.2426 27.6404M64.621 35.1555C64.6149 35.0414 64.6122 34.9213 64.6133 34.7959M64.621 35.1555C64.621 35.0339 64.6184 34.9141 64.6133 34.7959M72 27.0141C70.1657 27.2646 66.1218 26.2125 64.621 20C64.6627 21.8788 63.4454 26.0371 58.2426 27.6404M72 27.0141C66.0992 27.8719 64.6345 32.3489 64.6133 34.7959M58.2426 27.6404C60.3161 28.0882 64.4118 30.1404 64.6133 34.7959" stroke="#1F5460" stroke-opacity="0.9" stroke-width="3" stroke-linejoin="round"/>
<path d="M44.9328 28C44.7535 25.3757 46.4387 19.7714 53 19.873C50.042 19.4921 45.6857 16.5714 44.9328 12C45.5602 14.455 42.3782 19.4667 37 19.873C39.3305 20.127 44.9328 23.2254 44.9328 28Z" stroke="#1F5460" stroke-opacity="0.9" stroke-width="2"/>
<path d="M53.958 11C53.8459 9.35979 54.8992 5.85714 59 5.92064C57.1513 5.68254 54.4286 3.85714 53.958 1C54.3501 2.53439 52.3613 5.66667 49 5.92064C50.4566 6.07937 53.958 8.01587 53.958 11Z" stroke="#1F5460" stroke-opacity="0.9" stroke-width="2"/>
<rect x="67.7472" y="45.12" width="2.70151" height="21.3246" rx="1.35075" transform="rotate(42.0182 67.7472 45.12)" fill="#1F5460" fill-opacity="0.9"/>
<rect x="71.7787" y="47.3259" width="2.70151" height="18.5591" rx="1.35075" transform="rotate(42.0182 71.7787 47.3259)" fill="#1F5460" fill-opacity="0.9"/>
</svg>
