<svg width="92" height="94" viewBox="0 0 92 94" fill="none" xmlns="http://www.w3.org/2000/svg"><circle cx="35.5" cy="22.5" r="21" stroke="#1F5460" stroke-opacity="0.9" stroke-width="3"/><path d="M35.4237 92H68.8473C69.0247 90.6781 69.0412 88.2509 68.9294 85.7565C63.5748 85.7565 63.5668 81.7834 63.5748 80.0806H46.4393V75.5399H51.3352C51.3352 64.5665 59.2439 57.7554 65.4579 57.7554C68.9516 57.7554 54.8502 50.5659 48.699 51.1335V55.8634L43.9914 54.9714L35.4237 92ZM35.4237 92H2V67.4044C3.44365 61.3501 7.42311 49.6199 23.0899 51.1335V55.8634L27.0442 54.9714L35.4237 92Z" stroke="#1F5460" stroke-opacity="0.9" stroke-width="3"/><path d="M39.5 51C39.5 52.2195 38.3278 53.5 36.5 53.5C34.6722 53.5 33.5 52.2195 33.5 51C33.5 49.7805 34.6722 48.5 36.5 48.5C38.3278 48.5 39.5 49.7805 39.5 51Z" stroke="#1F5460" stroke-opacity="0.9" stroke-width="3"/><path d="M32.0353 50.5714L23 46.9524V55.7143L32.0353 51.9048M40.1294 50.1905L48.4118 46V55.7143L39.7529 52.4762M51.4235 75.5238C51.1098 70.3175 53.6071 58.8 66.1059 57.4286C65.8549 56.4127 66.1059 54.3429 69.1176 54.1905C72.1294 54.0381 72.2549 56.2857 71.9412 57.4286C76.9608 58.1905 87 63.8667 87 75.9048L51.4235 75.5238ZM63.8471 80.6667H74.5765C74.3882 82.5714 73.0706 86 69.1176 86C65.1647 86 63.8471 83.3333 63.8471 80.6667Z" stroke="#1F5460" stroke-opacity="0.9" stroke-width="3"/><path d="M46 74H92V81H46V74Z" fill="#1F5460"/><path fill-rule="evenodd" clip-rule="evenodd" d="M90 75.4H46V79.6H90V75.4ZM45 74V81H91V74H45Z" fill="#1F5460"/></svg>