<svg width="375" height="585" viewBox="0 0 375 585" fill="none" xmlns="http://www.w3.org/2000/svg">
<rect x="77.42" y="354.941" width="100" height="100" transform="rotate(50.7326 77.42 354.941)" fill="#B1CCE1"/>
<path d="M119.316 366.689L77.4199 354.941L141.025 432.742L173.994 433.57L119.316 366.689Z" fill="#BFD7EA" fill-opacity="0.8" stroke="#BFD7EA" stroke-opacity="0.8"/>
<path d="M140.009 432.937L63.2939 495.655L98.3627 495.401L173.994 433.57L140.009 432.937Z" fill="#BFD7EA" fill-opacity="0.5" stroke="#BFD7EA" stroke-opacity="0.5"/>
<rect x="77.42" y="354.941" width="100" height="100" transform="rotate(50.7326 77.42 354.941)" fill="#B1CCE1"/>
<path d="M119.316 366.689L77.4199 354.941L141.025 432.742L173.994 433.57L119.316 366.689Z" fill="#BFD7EA" fill-opacity="0.8" stroke="#BFD7EA" stroke-opacity="0.8"/>
<path d="M140.009 432.937L63.2939 495.655L98.3627 495.401L173.994 433.57L140.009 432.937Z" fill="#BFD7EA" fill-opacity="0.5" stroke="#BFD7EA" stroke-opacity="0.5"/>
<rect x="77.42" y="354.941" width="100" height="100" transform="rotate(50.7326 77.42 354.941)" fill="#B1CCE1"/>
<path d="M119.316 366.689L77.4199 354.941L141.025 432.742L173.994 433.57L119.316 366.689Z" fill="#BFD7EA" fill-opacity="0.8" stroke="#BFD7EA" stroke-opacity="0.8"/>
<path d="M140.009 432.937L63.2939 495.655L98.3627 495.401L173.994 433.57L140.009 432.937Z" fill="#BFD7EA" fill-opacity="0.5" stroke="#BFD7EA" stroke-opacity="0.5"/>
<rect x="174.195" y="275.824" width="100" height="100" transform="rotate(50.7326 174.195 275.824)" fill="#B1CCE1"/>
<path d="M216.091 287.571L174.195 275.824L237.8 353.624L270.769 354.452L216.091 287.571Z" fill="#BFD7EA" fill-opacity="0.8" stroke="#BFD7EA" stroke-opacity="0.8"/>
<path d="M236.784 353.82L160.069 416.538L195.138 416.284L270.769 354.453L236.784 353.82Z" fill="#BFD7EA" fill-opacity="0.5" stroke="#BFD7EA" stroke-opacity="0.5"/>
<rect x="253" y="368" width="100" height="100" fill="#B1CCE1"/>
<path d="M288.613 343L253 368H353.491L375 343H288.613Z" fill="#BFD7EA" fill-opacity="0.8" stroke="#BFD7EA" stroke-opacity="0.8"/>
<path d="M353 368.91V468L375 440.689V343L353 368.91Z" fill="#BFD7EA" fill-opacity="0.5" stroke="#BFD7EA" stroke-opacity="0.5"/>
<rect x="253" y="493" width="100" height="100" fill="#B1CCE1"/>
<path d="M288.613 468L253 493H353.491L375 468H288.613Z" fill="#BFD7EA" fill-opacity="0.8" stroke="#BFD7EA" stroke-opacity="0.8"/>
<path d="M353 493.91V593L375 565.689V468L353 493.91Z" fill="#BFD7EA" fill-opacity="0.5" stroke="#BFD7EA" stroke-opacity="0.5"/>
<rect x="253" y="368" width="100" height="100" fill="#B1CCE1"/>
<path d="M353 368.91V468L375 440.689V343L353 368.91Z" fill="#BFD7EA" fill-opacity="0.5" stroke="#BFD7EA" stroke-opacity="0.5"/>
<rect x="253" y="493" width="100" height="100" fill="#B1CCE1"/>
<path d="M288.613 468L253 493H353.491L375 468H288.613Z" fill="#BFD7EA" fill-opacity="0.8" stroke="#BFD7EA" stroke-opacity="0.8"/>
<path d="M353 493.91V593L375 565.689V468L353 493.91Z" fill="#BFD7EA" fill-opacity="0.5" stroke="#BFD7EA" stroke-opacity="0.5"/>
<rect x="38.8522" y="94.5886" width="100" height="100" transform="rotate(-36.4476 38.8522 94.5886)" fill="#B1CCE1"/>
<path d="M52.6469 53.3216L38.8522 94.5886L119.687 34.888L122.137 2L52.6469 53.3216Z" fill="#BFD7EA" fill-opacity="0.8" stroke="#BFD7EA" stroke-opacity="0.8"/>
<path d="M119.833 35.9122L178.701 115.62L180.173 80.5812L122.137 2L119.833 35.9122Z" fill="#BFD7EA" fill-opacity="0.5" stroke="#BFD7EA" stroke-opacity="0.5"/>
<rect x="113.113" y="195.139" width="100" height="100" transform="rotate(-36.4476 113.113 195.139)" fill="#B1CCE1"/>
<path d="M126.908 153.872L113.113 195.139L193.948 135.438L196.398 102.55L126.908 153.872Z" fill="#BFD7EA" fill-opacity="0.8" stroke="#BFD7EA" stroke-opacity="0.8"/>
<path d="M194.094 136.462L252.962 216.17L254.434 181.131L196.398 102.55L194.094 136.462Z" fill="#BFD7EA" fill-opacity="0.5" stroke="#BFD7EA" stroke-opacity="0.5"/>
<rect x="38.8522" y="94.5886" width="100" height="100" transform="rotate(-36.4476 38.8522 94.5886)" fill="#B1CCE1"/>
<path d="M119.833 35.9122L178.701 115.62L180.173 80.5812L122.137 2L119.833 35.9122Z" fill="#BFD7EA" fill-opacity="0.5" stroke="#BFD7EA" stroke-opacity="0.5"/>
<rect x="113.113" y="195.139" width="100" height="100" transform="rotate(-36.4476 113.113 195.139)" fill="#B1CCE1"/>
<path d="M126.908 153.872L113.113 195.139L193.948 135.438L196.398 102.55L126.908 153.872Z" fill="#BFD7EA" fill-opacity="0.8" stroke="#BFD7EA" stroke-opacity="0.8"/>
<path d="M194.094 136.462L252.962 216.17L254.434 181.131L196.398 102.55L194.094 136.462Z" fill="#BFD7EA" fill-opacity="0.5" stroke="#BFD7EA" stroke-opacity="0.5"/>
<rect x="234.198" y="523.531" width="100" height="100" transform="rotate(99.6021 234.198 523.531)" fill="#B1CCE1"/>
<rect x="110.949" y="502.68" width="100" height="100" transform="rotate(99.6021 110.949 502.68)" fill="#B1CCE1"/>
<path d="M129.659 541.964L110.949 502.68L94.1869 601.764L115.249 627.141L129.659 541.964Z" fill="#BFD7EA" fill-opacity="0.8" stroke="#BFD7EA" stroke-opacity="0.8"/>
<path d="M93.3711 601.128L-4.3303 584.599L18.9283 610.846L115.249 627.141L93.3711 601.128Z" fill="#BFD7EA" fill-opacity="0.5" stroke="#BFD7EA" stroke-opacity="0.5"/>
<rect x="234.198" y="523.531" width="100" height="100" transform="rotate(99.6021 234.198 523.531)" fill="#B1CCE1"/>
<rect x="110.949" y="502.68" width="100" height="100" transform="rotate(99.6021 110.949 502.68)" fill="#B1CCE1"/>
<path d="M129.659 541.964L110.949 502.68L94.1869 601.764L115.249 627.141L129.659 541.964Z" fill="#BFD7EA" fill-opacity="0.8" stroke="#BFD7EA" stroke-opacity="0.8"/>
<path d="M93.3711 601.128L-4.3303 584.599L18.9283 610.846L115.249 627.141L93.3711 601.128Z" fill="#BFD7EA" fill-opacity="0.5" stroke="#BFD7EA" stroke-opacity="0.5"/>
<path d="M251.88 562.005L234.068 522.306L215.059 620.983L235.54 646.832L251.88 562.005Z" fill="#BFD7EA" fill-opacity="0.8" stroke="#BFD7EA" stroke-opacity="0.8"/>
</svg>
