<svg width="170" height="134" viewBox="0 0 170 134" fill="none" xmlns="http://www.w3.org/2000/svg"><ellipse cx="47" cy="106.5" rx="28" ry="27.5" fill="#DDE8F1"/><ellipse cx="124.5" cy="25" rx="18.5" ry="18" fill="#DDE8F1"/><ellipse cx="14" cy="43.5" rx="14" ry="14.5" fill="#0C2E35"/><ellipse cx="37.5" cy="18" rx="18.5" ry="18" fill="#BFD7EA"/><ellipse cx="142.5" cy="94" rx="27.5" ry="29" fill="#DDE8F1"/><circle cx="80" cy="62" r="60.5" stroke="black" stroke-dasharray="3 3"/><ellipse cx="81" cy="72" rx="60" ry="59" fill="#0C2E35"/><mask id="path-8-inside-1_714_7" fill="white"><rect x="44" y="49" width="78" height="48" rx="3"/></mask><rect x="44" y="49" width="78" height="48" rx="3" stroke="#BFD7EA" stroke-width="8" mask="url(#path-8-inside-1_714_7)"/><path d="M83.3414 80C78.6133 80 55.9773 61.0224 45 52.2599C45 51.6129 45.6184 51.4511 45.9277 51.4511C71.4382 51.3163 121.694 50.5072 121.996 51.4511C122.45 52.8768 88.0695 80 83.3414 80Z" stroke="#BFD7EA" stroke-width="4"/><path d="M97.0765 72.0743L121.548 94.8925" stroke="#BFD7EA" stroke-width="4"/><path d="M70.7394 73.1306L46.7888 95.2033" stroke="#BFD7EA" stroke-width="4"/></svg>