<svg width="173" height="137" viewBox="0 0 173 137" fill="none" xmlns="http://www.w3.org/2000/svg">
<circle cx="47.5" cy="108.5" r="28.5" fill="#DDE8F1"/>
<ellipse cx="126.5" cy="25" rx="18.5" ry="18" fill="#DDE8F1"/>
<ellipse cx="15" cy="43.5" rx="15" ry="15.5" fill="#0C2E35"/>
<ellipse cx="38" cy="18" rx="19" ry="18" fill="#BFD7EA"/>
<circle cx="144.5" cy="95.5" r="28.5" fill="#DDE8F1"/>
<path d="M142.837 58.4526C142.909 59.4552 142.958 60.4645 142.982 61.4799L142.482 61.4918C142.494 61.9931 142.5 62.4958 142.5 63C142.5 63.5042 142.494 64.0069 142.482 64.5082L142.982 64.5201C142.958 65.5354 142.909 66.5447 142.837 67.5474L142.338 67.5116C142.266 68.5161 142.17 69.5139 142.05 70.5044L142.547 70.5643C142.425 71.5717 142.28 72.5716 142.111 73.5636L141.618 73.4796C141.449 74.4715 141.257 75.4553 141.041 76.4303L141.529 76.5381C141.311 77.5282 141.069 78.5093 140.803 79.4808L140.321 79.3492C140.057 80.3191 139.769 81.2794 139.459 82.2295L139.934 82.3845C139.62 83.3477 139.283 84.3005 138.924 85.2422L138.457 85.0641C138.099 86.0027 137.719 86.9303 137.317 87.8462L137.775 88.047C137.368 88.9743 136.94 89.8896 136.49 90.7923L136.042 90.5693C135.595 91.4679 135.126 92.354 134.636 93.2268L135.072 93.4714C134.577 94.354 134.061 95.2231 133.525 96.0781L133.102 95.8125C132.569 96.6627 132.016 97.4989 131.443 98.3203L131.853 98.6062C131.275 99.4359 130.677 100.251 130.06 101.05L129.664 100.744C129.051 101.538 128.419 102.317 127.769 103.079L128.15 103.403C127.494 104.172 126.819 104.925 126.127 105.661L125.763 105.318C125.076 106.048 124.371 106.762 123.65 107.457L123.997 107.817C123.269 108.518 122.525 109.202 121.764 109.867L121.435 109.49C120.68 110.15 119.909 110.791 119.123 111.413L119.433 111.805C118.641 112.432 117.833 113.039 117.01 113.627L116.72 113.22C115.905 113.802 115.075 114.364 114.231 114.906L114.501 115.327C113.652 115.872 112.788 116.398 111.911 116.902L111.662 116.468C110.794 116.967 109.913 117.445 109.019 117.901L109.247 118.346C108.348 118.805 107.437 119.242 106.514 119.657L106.309 119.201C105.396 119.611 104.472 119.999 103.537 120.364L103.719 120.83C102.78 121.197 101.83 121.541 100.869 121.863L100.711 121.388C99.7628 121.705 98.8046 121.999 97.8368 122.27L97.9714 122.751C97.0014 123.022 96.0217 123.27 95.033 123.494L94.9226 123.006C93.9487 123.227 92.966 123.424 91.9752 123.597L92.0611 124.089C91.0698 124.262 90.0703 124.411 89.0634 124.536L89.002 124.04C88.012 124.162 87.0146 124.26 86.0105 124.334L86.0472 124.833C85.0446 124.907 84.0354 124.957 83.0201 124.981L83.0079 124.482C82.5067 124.494 82.0041 124.5 81.5 124.5C80.9959 124.5 80.4933 124.494 79.9922 124.482L79.98 124.981C78.9646 124.957 77.9554 124.907 76.9528 124.833L76.9896 124.334C75.9854 124.26 74.988 124.162 73.998 124.04L73.9367 124.536C72.9297 124.411 71.9302 124.262 70.9389 124.089L71.0249 123.597C70.034 123.424 69.0513 123.227 68.0775 123.006L67.9671 123.494C66.9784 123.27 65.9987 123.022 65.0286 122.751L65.1632 122.27C64.1954 121.999 63.2372 121.705 62.2894 121.388L62.1309 121.863C61.1702 121.541 60.2201 121.197 59.2811 120.83L59.4631 120.364C58.5277 119.999 57.6036 119.611 56.6912 119.201L56.4863 119.657C55.5631 119.242 54.6519 118.805 53.7533 118.346L53.9807 117.901C53.0868 117.445 52.2057 116.967 51.3378 116.468L51.0887 116.902C50.2117 116.398 49.3481 115.872 48.4987 115.327L48.769 114.906C47.925 114.364 47.0952 113.802 46.2801 113.22L45.9895 113.627C45.1668 113.039 44.359 112.432 43.5669 111.805L43.8771 111.413C43.0908 110.791 42.32 110.15 41.5654 109.49L41.2364 109.867C40.4755 109.202 39.7309 108.518 39.0034 107.817L39.3504 107.457C38.6289 106.762 37.9243 106.048 37.2373 105.318L36.8731 105.661C36.1809 104.925 35.5065 104.172 34.8504 103.403L35.2308 103.079C34.5807 102.317 33.9489 101.538 33.3359 100.744L32.9401 101.05C32.3231 100.251 31.7251 99.4359 31.1467 98.6062L31.5569 98.3203C30.9843 97.4989 30.4312 96.6627 29.8982 95.8125L29.4746 96.0781C28.9386 95.2231 28.4227 94.354 27.9277 93.4714L28.3638 93.2268C27.8743 92.354 27.4053 91.4679 26.9576 90.5693L26.51 90.7923C26.0603 89.8896 25.6317 88.9743 25.225 88.047L25.6829 87.8462C25.2813 86.9304 24.9011 86.0028 24.5431 85.0641L24.076 85.2422C23.7168 84.3005 23.3799 83.3478 23.0656 82.3846L23.541 82.2295C23.2311 81.2794 22.9435 80.3191 22.6789 79.3493L22.1965 79.4809C21.9314 78.5093 21.6892 77.5282 21.4705 76.5382L21.9587 76.4303C21.7433 75.4553 21.5509 74.4715 21.382 73.4796L20.8891 73.5636C20.7202 72.5717 20.5747 71.5717 20.4531 70.5643L20.9495 70.5044C20.83 69.5139 20.7338 68.5161 20.6616 67.5116L20.1629 67.5474C20.0908 66.5448 20.0424 65.5355 20.0181 64.5201L20.518 64.5082C20.506 64.0069 20.5 63.5042 20.5 63C20.5 62.4958 20.506 61.9931 20.518 61.4918L20.0181 61.4799C20.0424 60.4646 20.0908 59.4553 20.1629 58.4526L20.6616 58.4885C20.7338 57.4839 20.83 56.4861 20.9495 55.4956L20.4531 55.4357C20.5747 54.4283 20.7202 53.4284 20.8891 52.4365L21.382 52.5204C21.5509 51.5285 21.7433 50.5447 21.9587 49.5697L21.4705 49.4619C21.6892 48.4718 21.9314 47.4907 22.1965 46.5192L22.6789 46.6508C22.9435 45.6809 23.2311 44.7206 23.541 43.7705L23.0656 43.6155C23.3799 42.6523 23.7168 41.6995 24.076 40.7578L24.5431 40.9359C24.9011 39.9973 25.2813 39.0697 25.6829 38.1538L25.225 37.953C25.6317 37.0257 26.0602 36.1104 26.51 35.2078L26.9575 35.4307C27.4053 34.5321 27.8743 33.646 28.3638 32.7732L27.9277 32.5286C28.4227 31.6461 28.9385 30.7769 29.4745 29.9219L29.8982 30.1875C30.4312 29.3373 30.9843 28.5011 31.5569 27.6797L31.1467 27.3938C31.7251 26.5641 32.3231 25.7493 32.9401 24.9501L33.3359 25.2557C33.9489 24.4618 34.5807 23.6834 35.2308 22.9212L34.8504 22.5968C35.5065 21.8276 36.1809 21.0749 36.8731 20.3392L37.2372 20.6819C37.9243 19.9517 38.6289 19.2385 39.3504 18.5429L39.0034 18.183C39.7309 17.4817 40.4755 16.7982 41.2364 16.1332L41.5654 16.5097C42.32 15.8503 43.0908 15.2093 43.8771 14.5872L43.5669 14.1951C44.359 13.5685 45.1668 12.9611 45.9895 12.3735L46.2801 12.7804C47.0952 12.1983 47.925 11.6359 48.7689 11.0938L48.4987 10.6731C49.3481 10.1275 50.2116 9.60242 51.0887 9.09843L51.3378 9.53195C52.2057 9.03324 53.0868 8.55538 53.9807 8.09907L53.7533 7.65375C54.6518 7.19503 55.5631 6.75789 56.4863 6.34301L56.6912 6.79908C57.6036 6.38909 58.5277 6.00103 59.463 5.63555L59.2811 5.16985C60.22 4.80294 61.1702 4.4586 62.1308 4.13749L62.2893 4.6117C63.2372 4.29488 64.1954 4.00086 65.1632 3.73029L65.0286 3.24875C65.9986 2.97756 66.9783 2.72973 67.967 2.50591L68.0774 2.99357C69.0513 2.77311 70.034 2.57613 71.0248 2.40324L70.9389 1.91069C71.9302 1.73773 72.9297 1.58869 73.9366 1.4642L73.998 1.96042C74.988 1.83802 75.9854 1.73954 76.9895 1.66555L76.9528 1.1669C77.9554 1.09304 78.9646 1.0434 79.9799 1.01857L79.9921 1.51842C80.4933 1.50616 80.9959 1.5 81.5 1.5C82.0041 1.5 82.5067 1.50616 83.0078 1.51842L83.0201 1.01857C84.0354 1.0434 85.0446 1.09303 86.0472 1.1669L86.0104 1.66555C87.0146 1.73953 88.012 1.83802 89.002 1.96042L89.0633 1.4642C90.0703 1.58869 91.0698 1.73772 92.0611 1.91068L91.9751 2.40324C92.966 2.57612 93.9487 2.7731 94.9225 2.99356L95.0329 2.5059C96.0216 2.72972 97.0013 2.97755 97.9714 3.24874L97.8368 3.73028C98.8046 4.00085 99.7628 4.29487 100.711 4.6117L100.869 4.13748C101.83 4.45859 102.78 4.80293 103.719 5.16984L103.537 5.63555C104.472 6.00102 105.396 6.38909 106.309 6.79907L106.514 6.343C107.437 6.75788 108.348 7.19502 109.247 7.65374L109.019 8.09907C109.913 8.55538 110.794 9.03323 111.662 9.53195L111.911 9.09843C112.788 9.60241 113.652 10.1275 114.501 10.6731L114.231 11.0938C115.075 11.6359 115.905 12.1983 116.72 12.7804L117.01 12.3735C117.833 12.961 118.641 13.5685 119.433 14.1951L119.123 14.5872C119.909 15.2092 120.68 15.8503 121.435 16.5097L121.764 16.1332C122.525 16.7982 123.269 17.4817 123.997 18.183L123.65 18.5429C124.371 19.2385 125.076 19.9517 125.763 20.6819L126.127 20.3392C126.819 21.0749 127.494 21.8276 128.15 22.5968L127.769 22.9212C128.419 23.6834 129.051 24.4618 129.664 25.2557L130.06 24.9501C130.677 25.7493 131.275 26.5641 131.853 27.3938L131.443 27.6797C132.016 28.5011 132.569 29.3373 133.102 30.1875L133.525 29.9219C134.061 30.7769 134.577 31.646 135.072 32.5286L134.636 32.7732C135.126 33.646 135.595 34.5321 136.042 35.4307L136.49 35.2077C136.94 36.1104 137.368 37.0257 137.775 37.953L137.317 38.1538C137.719 39.0696 138.099 39.9972 138.457 40.9359L138.924 40.7578C139.283 41.6995 139.62 42.6523 139.934 43.6155L139.459 43.7705C139.769 44.7206 140.057 45.6809 140.321 46.6508L140.803 46.5191C141.069 47.4907 141.311 48.4718 141.529 49.4618L141.041 49.5697C141.257 50.5447 141.449 51.5285 141.618 52.5204L142.111 52.4364C142.28 53.4283 142.425 54.4283 142.547 55.4357L142.05 55.4956C142.17 56.4861 142.266 57.4839 142.338 58.4884L142.837 58.4526Z" stroke="black" stroke-dasharray="3 3"/>
<ellipse cx="83.5" cy="72" rx="59.5" ry="60" fill="#0C2E35"/>
<path d="M79.7956 60C79.7956 60 80.9613 60.991 83.2926 63.3033C85.6238 65.6156 79.7956 67.893 79.7956 69.2492C79.7956 70.6053 88.2124 77.5073 89.8978 77.5073C91.5833 77.5073 92.9077 74.7378 94.1718 74.5344C95.4359 74.331 96.5031 75.195 97.6687 76.186C98.8344 77.177 100 78.168 100 78.8286C100 79.4893 98.5167 82.1918 94.9489 83.4532C90.8346 84.9078 86.6635 83.2273 83.2926 81.1409C78.2246 78.0042 74.9415 75.0214 72.4133 68.9188C70.5064 64.316 75.582 60 79.7956 60Z" stroke="#BFD7EA" stroke-width="4"/>
<path d="M61.2703 101L63.4761 87.0034C62.1891 83.7668 59 80.4963 59 68.1299C59 50.4566 73.4723 41 87.2867 41C104.39 41 116.116 56.1422 114.916 71.4384C112.942 96.5831 87.2867 100.553 76.1036 96.5831L61.2703 101Z" stroke="#BFD7EA" stroke-width="4"/>
</svg>
