<svg width="131" height="134" viewBox="0 0 131 134" fill="none" xmlns="http://www.w3.org/2000/svg"><g filter="url(#filter0_d_374_16)"><path d="M107.885 44.8309C107.885 44.8309 103.21 47.8983 92.5585 53.7707C81.9075 59.6431 76.8395 38.5643 71.5051 37.4875C66.1708 36.4108 33.4053 58.7605 32.2804 64.3334C31.1555 69.9063 41.1651 76.4845 41.1215 80.8256C41.0779 85.1668 36.967 88.0094 32.2911 91.0767C27.6153 94.1441 22.9394 97.2114 20.3408 96.6869C17.7423 96.1623 8.10226 89.1123 5.52192 76.3139C2.54631 61.555 11.9404 49.0977 22.3966 39.6084C38.1169 25.3418 52.0406 16.8545 77.7315 13.3403C97.109 10.6896 110.698 30.8986 107.885 44.8309Z" fill="#0C2E35"/></g><g filter="url(#filter1_d_374_16)"><rect x="57.1614" y="52.9765" width="72.0058" height="50.2541" rx="1.5" transform="rotate(19.38 57.1614 52.9765)" stroke="#0C2E35" stroke-width="3" shape-rendering="crispEdges"/></g><g filter="url(#filter2_d_374_16)"><path d="M79.7871 96.7155C75.7031 95.2789 63.3173 68.0278 57.1444 55.2857C57.3887 54.5911 57.984 54.6053 58.2511 54.6992C80.3373 62.3058 124.053 76.7072 123.956 77.812C123.811 79.4808 83.8712 98.1521 79.7871 96.7155Z" stroke="#0C2E35" stroke-width="3" shape-rendering="crispEdges"/></g><g filter="url(#filter3_d_374_16)"><path d="M96.6367 91.8891L110.075 124.067" stroke="#0C2E35" stroke-width="3"/></g><g filter="url(#filter4_d_374_16)"><path d="M71.7256 84.4L41.5077 100.061" stroke="#0C2E35" stroke-width="3"/></g><defs><filter id="filter0_d_374_16" x="0.963562" y="13.1038" width="111.29" height="91.6421" filterUnits="userSpaceOnUse" color-interpolation-filters="sRGB"><feFlood flood-opacity="0" result="BackgroundImageFix"/><feColorMatrix in="SourceAlpha" type="matrix" values="0 0 0 0 0 0 0 0 0 0 0 0 0 0 0 0 0 0 127 0" result="hardAlpha"/><feOffset dy="4"/><feGaussianBlur stdDeviation="2"/><feComposite in2="hardAlpha" operator="out"/><feColorMatrix type="matrix" values="0 0 0 0 0 0 0 0 0 0 0 0 0 0 0 0 0 0 0.25 0"/><feBlend mode="normal" in2="BackgroundImageFix" result="effect1_dropShadow_374_16"/><feBlend mode="normal" in="SourceGraphic" in2="effect1_dropShadow_374_16" result="shape"/></filter><filter id="filter1_d_374_16" x="35.3974" y="51.8884" width="94.7779" height="81.4766" filterUnits="userSpaceOnUse" color-interpolation-filters="sRGB"><feFlood flood-opacity="0" result="BackgroundImageFix"/><feColorMatrix in="SourceAlpha" type="matrix" values="0 0 0 0 0 0 0 0 0 0 0 0 0 0 0 0 0 0 127 0" result="hardAlpha"/><feOffset dy="4"/><feGaussianBlur stdDeviation="2"/><feComposite in2="hardAlpha" operator="out"/><feColorMatrix type="matrix" values="0 0 0 0 0 0 0 0 0 0 0 0 0 0 0 0 0 0 0.25 0"/><feBlend mode="normal" in2="BackgroundImageFix" result="effect1_dropShadow_374_16"/><feBlend mode="normal" in="SourceGraphic" in2="effect1_dropShadow_374_16" result="shape"/></filter><filter id="filter2_d_374_16" x="51.522" y="53.1528" width="77.9348" height="53.1416" filterUnits="userSpaceOnUse" color-interpolation-filters="sRGB"><feFlood flood-opacity="0" result="BackgroundImageFix"/><feColorMatrix in="SourceAlpha" type="matrix" values="0 0 0 0 0 0 0 0 0 0 0 0 0 0 0 0 0 0 127 0" result="hardAlpha"/><feOffset dy="4"/><feGaussianBlur stdDeviation="2"/><feComposite in2="hardAlpha" operator="out"/><feColorMatrix type="matrix" values="0 0 0 0 0 0 0 0 0 0 0 0 0 0 0 0 0 0 0.25 0"/><feBlend mode="normal" in2="BackgroundImageFix" result="effect1_dropShadow_374_16"/><feBlend mode="normal" in="SourceGraphic" in2="effect1_dropShadow_374_16" result="shape"/></filter><filter id="filter3_d_374_16" x="91.2526" y="91.311" width="24.2068" height="41.334" filterUnits="userSpaceOnUse" color-interpolation-filters="sRGB"><feFlood flood-opacity="0" result="BackgroundImageFix"/><feColorMatrix in="SourceAlpha" type="matrix" values="0 0 0 0 0 0 0 0 0 0 0 0 0 0 0 0 0 0 127 0" result="hardAlpha"/><feOffset dy="4"/><feGaussianBlur stdDeviation="2"/><feComposite in2="hardAlpha" operator="out"/><feColorMatrix type="matrix" values="0 0 0 0 0 0 0 0 0 0 0 0 0 0 0 0 0 0 0.25 0"/><feBlend mode="normal" in2="BackgroundImageFix" result="effect1_dropShadow_374_16"/><feBlend mode="normal" in="SourceGraphic" in2="effect1_dropShadow_374_16" result="shape"/></filter><filter id="filter4_d_374_16" x="36.8175" y="83.0681" width="39.5983" height="26.3247" filterUnits="userSpaceOnUse" color-interpolation-filters="sRGB"><feFlood flood-opacity="0" result="BackgroundImageFix"/><feColorMatrix in="SourceAlpha" type="matrix" values="0 0 0 0 0 0 0 0 0 0 0 0 0 0 0 0 0 0 127 0" result="hardAlpha"/><feOffset dy="4"/><feGaussianBlur stdDeviation="2"/><feComposite in2="hardAlpha" operator="out"/><feColorMatrix type="matrix" values="0 0 0 0 0 0 0 0 0 0 0 0 0 0 0 0 0 0 0.25 0"/><feBlend mode="normal" in2="BackgroundImageFix" result="effect1_dropShadow_374_16"/><feBlend mode="normal" in="SourceGraphic" in2="effect1_dropShadow_374_16" result="shape"/></filter></defs></svg>