<svg width="121" height="137" viewBox="0 0 121 137" fill="none" xmlns="http://www.w3.org/2000/svg">
<g filter="url(#filter0_d_25_2)">
<path d="M90.3929 97.8885C86.3823 101.875 54.406 97.7796 46.4371 88.4255C40.062 80.9422 16.2352 85.2241 5.11873 88.3005L5.03807 114.957C10.3695 114.974 20.239 112.871 27.6965 115.026C35.154 117.181 42.331 123.956 46.3201 127.078C54.7602 127.548 76.9725 128.237 87.6385 127.203C98.3045 126.169 118.383 97.9732 115.733 92.6337C113.084 87.2943 108.201 85.9466 103.75 88.5989C97.0733 92.5773 93.6014 94.6993 90.3929 97.8885ZM90.3929 97.8885C97.8343 105.375 89.907 111.66 85.0172 112.534C80.5743 112.52 69.2895 112.486 59.693 112.457C50.0965 112.428 44.1673 104.413 42.4022 100.409" stroke="white" stroke-width="2" shape-rendering="crispEdges"/>
</g>
<g filter="url(#filter1_d_25_2)">
<path d="M15.9613 19.1509C8.74667 40.9297 43.8559 66.6661 63.9767 78C111.992 57.0757 120.224 23.0742 107.877 9.99657C90.2477 -8.67588 72.2081 6.07338 65.3487 15.2277C55.7456 -0.465386 24.1926 -5.69654 15.9613 19.1509Z" stroke="white" stroke-width="2" shape-rendering="crispEdges"/>
</g>
<defs>
<filter id="filter0_d_25_2" x="0.0350647" y="83.2602" width="120.937" height="53.4817" filterUnits="userSpaceOnUse" color-interpolation-filters="sRGB">
<feFlood flood-opacity="0" result="BackgroundImageFix"/>
<feColorMatrix in="SourceAlpha" type="matrix" values="0 0 0 0 0 0 0 0 0 0 0 0 0 0 0 0 0 0 127 0" result="hardAlpha"/>
<feOffset dy="4"/>
<feGaussianBlur stdDeviation="2"/>
<feComposite in2="hardAlpha" operator="out"/>
<feColorMatrix type="matrix" values="0 0 0 0 0 0 0 0 0 0 0 0 0 0 0 0 0 0 0.25 0"/>
<feBlend mode="normal" in2="BackgroundImageFix" result="effect1_dropShadow_25_2"/>
<feBlend mode="normal" in="SourceGraphic" in2="effect1_dropShadow_25_2" result="shape"/>
</filter>
<filter id="filter1_d_25_2" x="9.99979" y="-2.28882e-05" width="108" height="87.1157" filterUnits="userSpaceOnUse" color-interpolation-filters="sRGB">
<feFlood flood-opacity="0" result="BackgroundImageFix"/>
<feColorMatrix in="SourceAlpha" type="matrix" values="0 0 0 0 0 0 0 0 0 0 0 0 0 0 0 0 0 0 127 0" result="hardAlpha"/>
<feOffset dy="4"/>
<feGaussianBlur stdDeviation="2"/>
<feComposite in2="hardAlpha" operator="out"/>
<feColorMatrix type="matrix" values="0 0 0 0 0 0 0 0 0 0 0 0 0 0 0 0 0 0 0.25 0"/>
<feBlend mode="normal" in2="BackgroundImageFix" result="effect1_dropShadow_25_2"/>
<feBlend mode="normal" in="SourceGraphic" in2="effect1_dropShadow_25_2" result="shape"/>
</filter>
</defs>
</svg>
