<?xml version="1.0" encoding="utf-8"?>
<!-- Generator: Adobe Illustrator 16.0.3, SVG Export Plug-In . SVG Version: 6.00 Build 0)  -->
<!DOCTYPE svg PUBLIC "-//W3C//DTD SVG 1.1//EN" "http://www.w3.org/Graphics/SVG/1.1/DTD/svg11.dtd">
<svg version="1.1" id="Capa_1" xmlns="http://www.w3.org/2000/svg" xmlns:xlink="http://www.w3.org/1999/xlink" x="0px" y="0px"
	 width="329px" height="321px" viewBox="0 0 329 321" enable-background="new 0 0 329 321" xml:space="preserve">
<g>
	<defs>
		<filter id="Adobe_OpacityMaskFilter" filterUnits="userSpaceOnUse" x="142.078" y="63.567" width="162.094" height="117.535">
			
				<feColorMatrix  type="matrix" values="-1 0 0 0 1  0 -1 0 0 1  0 0 -1 0 1  0 0 0 1 0" color-interpolation-filters="sRGB" result="source"/>
			<feFlood  style="flood-color:white;flood-opacity:1" result="back"/>
			<feBlend  in="source" in2="back" mode="normal"/>
		</filter>
	</defs>
	<mask maskUnits="userSpaceOnUse" x="142.078" y="63.567" width="162.094" height="117.535" id="SVGID_1_">
		<g filter="url(#Adobe_OpacityMaskFilter)">
			<path fill="#FDFFFF" d="M264.031,150.925c0.01,0.992-0.596,1.613-1.313,2.133c-1.143,0.824-2.453,1.311-3.789,1.691
				c-1.637,0.469-3.289,0.869-4.939,1.277c-0.207,0.053-0.486,0.27-0.656,0.006c-0.139-0.215,0.027-0.465,0.135-0.684
				c0.453-0.938,1.32-1.314,2.234-1.559c1.141-0.299,2.301-0.523,3.453-0.768c0.736-0.154,1.117-0.406,0.914-1.322
				c-0.213-0.953-0.064-1.953,0.734-2.695c0.998-0.935,1.91-0.833,2.658,0.281C263.801,149.784,264.041,150.315,264.031,150.925"/>
			<path fill="#FCFDFD" d="M244.773,148.495c-0.037,1.326-0.686,2.135-1.824,2.396c-0.42,0.098-0.645,0.057-0.742-0.42
				c-0.27-1.299,0.738-2.677,2.045-2.784C245.035,147.623,244.654,148.225,244.773,148.495"/>
			<path fill="#FFFFFF" d="M233.033,151.327c0.004-2.168,1.018-3.653,2.705-4.046c0.234-0.055,0.492-0.254,0.658,0.188
				c0.621,1.622-0.465,4.419-2.025,5.144c-1.078,0.498-1.203,0.426-1.305-0.762C233.047,151.644,233.039,151.435,233.033,151.327"/>
			<path fill="#FFFFFF" d="M238.184,123.43c0.277,0,0.559,0.028,0.836-0.004c1.051-0.131,1.785,0.045,1.521,1.375
				c-0.096,0.492,0.172,0.685,0.664,0.66c0.52-0.027,1.049,0.019,1.566-0.011c0.621-0.037,0.682,0.22,0.539,0.756
				c-0.439,1.649-1.578,2.564-3.109,3.106c-0.994,0.352-2.154,0.82-3.039,0.487c-0.982-0.37-0.527-1.749-0.754-2.671
				c-0.232-0.939-0.234-1.935-0.428-2.89c-0.139-0.696,0.098-0.873,0.738-0.819C237.203,123.462,237.693,123.43,238.184,123.43"/>
			<path fill="#FDFFFF" d="M223.74,150.772c-0.891,0.555-1.742,1.027-2.529,1.596c-0.713,0.512-1.018,0.422-1.035-0.479
				c-0.002-0.201-0.098-0.398-0.145-0.586c-0.316-0.135-0.479,0.111-0.676,0.209c-0.883,0.434-1.563,0.209-2.018-0.631
				c-0.332-0.609-0.607-1.25-0.875-1.893c-0.41-0.983-1.023-1.538-2.178-1.243c-0.598,0.152-1.096-0.035-1.359-0.66
				c-0.463-1.09-0.289-1.4,0.877-1.566c1.734-0.246,2.758,0.092,3.402,1.531c1.16,2.593,3.242,3.458,5.865,3.524
				c0.172,0.004,0.346,0.025,0.516,0.043C223.607,150.622,223.629,150.657,223.74,150.772"/>
			<path fill="#FDFFFF" d="M201.988,149.565c1.717-0.268,2.295,0.092,2.873,2.227c0.32,1.186,0.99,1.521,2.02,1.43
				c0.557-0.049,0.641,0.119,0.615,0.607c-0.066,1.203-0.744,1.98-1.811,2.014c-1.355,0.047-2.141-0.598-2.213-1.914
				C203.381,152.351,203.068,150.851,201.988,149.565"/>
			<path fill="#FCFDFD" d="M211.018,139.721c-0.51-0.074-1.021,0.129-1.463-0.121c-0.805-0.451-0.785-1.308-0.758-2.033
				c0.027-0.699,0.715-0.228,1.088-0.342c0.492-0.154,1.025-0.202,1.543-0.091c1.037,0.217,1.668,1.624,1.031,2.386
				C212.08,139.969,211.473,139.588,211.018,139.721"/>
			<path fill="#FDFFFF" d="M213.221,131.81c-0.699,0.058-1.281-0.4-1.723-1.079c-0.684-1.057-1.027-2.27-1.49-3.426
				c-0.273-0.688,0.266-0.859,0.76-0.939c1.926-0.312,4.641,2.592,4.232,4.491C214.801,131.783,214.096,131.776,213.221,131.81"/>
		</g>
	</mask>
	<path mask="url(#SVGID_1_)" fill="#67A03C" d="M211.67,180.679c-0.537-3.271-0.102-6.537,0.084-9.807
		c0.104-1.846,0.225-3.691-0.098-5.527c-0.412-2.363-1.754-3.162-3.881-2.041c-1.682,0.891-3.215,0.688-4.797-0.018
		c-1.494-0.666-2.943-1.436-4.441-2.09c-1.225-0.537-2.51-0.838-3.869-0.568c-0.979,0.197-1.807,0.543-2.449,1.412
		c-1.084,1.471-2.715,2.012-4.469,2.176c-1.357,0.127-2.717,0.094-4.068-0.133c-0.332-0.057-0.676-0.182-0.88,0.277
		c-1.185,2.682-3.633,3.26-6.169,3.621c-3.008,0.43-6.055,0.342-9.077,0.617c-1.527,0.139-3.049,0.342-4.541,0.699
		c-1.245,0.297-2.389,0.639-3.211,1.867c-0.898,1.342-2.472,1.732-4.052,1.855c-2.133,0.166-4.245-0.174-6.368-0.303
		c-0.902-0.057-1.827-0.158-2.71-0.012c-0.862,0.141-1.472-0.129-2.098-0.623c-1.918-1.523-2.544-3.582-2.496-5.93
		c0.037-1.865,0.175-3.836,1.084-5.383c1.059-1.797,2.488-3.592,4.812-3.971c0.721-0.119,1.023-0.4,1.225-0.994
		c0.789-2.307,1.563-4.617,2.372-6.916c0.793-2.257,1.896-4.337,3.592-6.069c0.191-0.195,0.407-0.42,0.486-0.672
		c0.566-1.818,2.011-2.271,3.669-2.371c0.69-0.041,1.386-0.006,2.089-0.006c0.091-0.531-0.244-0.842-0.413-1.197
		c-1.923-4.037-2.824-8.255-1.994-12.695c1.101-5.917,4.723-9.722,10.289-11.74c0.862-0.311,1.234-0.789,1.325-1.617
		c0.198-1.799,0.354-3.605,0.606-5.399c0.255-1.793,1.161-3.195,2.806-4.044c0.43-0.219,0.565-0.547,0.652-0.979
		c0.229-1.143,0.116-2.294,0.157-3.443c0.061-1.9,0.939-3.23,2.391-4.51c3.678-3.252,7.719-3.04,11.985-1.778
		c1.217,0.358,1.217,0.358,1.34-0.939c0.057-0.592,0.094-1.184,0.154-1.773c0.104-0.987,0.445-1.783,1.604-1.84
		c0.5-0.021,0.51-0.393,0.586-0.723c0.279-1.235,0.344-2.492,0.242-3.743c-0.285-3.574,0.639-6.634,3.631-8.849
		c0.443-0.325,0.441-0.774,0.42-1.218c-0.023-0.621,0.238-1.013,0.727-1.386c6.266-4.804,13.387-7.349,21.189-8.124
		c3.662-0.366,7.311-0.29,10.906,0.621c1.293,0.33,2.508,0.773,3.418,1.859c0.563,0.667,1.348,1.117,2.133,1.492
		c3.139,1.501,4.709,4.109,5.328,7.418c0.127,0.682,0.316,1.354,0.48,2.031c0.553,2.313,2.127,2.297,3.441,0.906
		c1.709-1.806,3.73-2.343,5.963-2.572c2.646-0.273,5.293-0.127,7.939,0.083c0.604,0.045,0.889,0.199,1.008,0.861
		c0.375,2.093,1.354,2.764,3.457,2.446c0.428-0.066,0.688-0.079,0.867,0.419c0.447,1.226,1.35,2.096,2.404,2.82
		c0.229,0.156,0.451,0.333,0.695,0.464c3.055,1.632,3.729,4.269,3.244,7.455c-0.133,0.88-0.465,1.499-1.143,2.077
		c-1.422,1.208-2.221,2.544-2.506,3.87c0.418,0.146,0.844,0.034,1.225-0.072c2.73-0.77,5.209-0.045,7.674,1.11
		c3.027,1.42,3.387,2.443,3.061,6.034c-0.205,2.249-0.855,4.446-1.027,6.713c-0.092,1.219-0.063,2.438-0.074,3.656
		c-0.006,0.644,0.266,0.823,0.869,0.85c1.533,0.065,3.057,0.261,4.555,0.604c2.844,0.656,5.34,1.966,7.506,3.934
		c1.512,1.379,2.904,2.931,4.852,3.758c0.371,0.156,0.377,0.441,0.375,0.768c-0.002,2.478-0.002,4.955,0,7.428
		c0,0.85-0.771,1.19-1.158,1.787c-0.635,0.982-1.41,1.367-2.691,1.14c-1.986-0.349-4.025-0.354-6.025,0.143
		c-1.244,0.306-2.357,0.848-3.191,1.861c-0.199,0.241-0.52,0.504-0.438,0.794c0.096,0.341,0.531,0.235,0.826,0.28
		c1.551,0.239,3.102,0.479,4.654,0.694c0.582,0.082,1.01,0.242,0.861,0.961c-0.264,1.259,0.34,1.882,1.445,2.462
		c3.678,1.937,7.166,4.179,10.135,7.138c1.266,1.263,2.365,2.655,3.133,4.284c1.471,3.133,0.965,6.092-0.74,8.969
		c-0.613,1.039-1.396,1.969-1.797,3.16c-0.318,0.941-1.25,1.252-2.172,1.412c-0.969,0.162-1.945,0.219-2.922,0.137
		c-4.273-0.363-8.459,0.029-12.66,0.949c-6.084,1.336-11.998,0.754-17.488-2.455c-0.42-0.244-0.855-0.256-1.309-0.273
		c-2.443-0.092-4.877,0.17-7.314,0.285c-2.572,0.117-5.076-0.066-7.447-1.221c-0.92-0.449-1.979-0.363-2.98-0.453
		c-4.686-0.416-9.184,0.154-13.303,2.633c-0.426,0.25-0.777,0.459-0.773,1.086c0.031,4.535,0.016,9.068,0.02,13.602
		c0,0.172,0.053,0.344,0.082,0.516c-0.352,0.457-0.867,0.395-1.344,0.395c-6.053,0.016-12.105,0.016-18.16,0
		C212.527,181.089,212.004,181.161,211.67,180.679"/>
	<defs>
		<filter id="Adobe_OpacityMaskFilter_1_" filterUnits="userSpaceOnUse" x="42.592" y="144.656" width="216.525" height="140.063">
			
				<feColorMatrix  type="matrix" values="-1 0 0 0 1  0 -1 0 0 1  0 0 -1 0 1  0 0 0 1 0" color-interpolation-filters="sRGB" result="source"/>
			<feFlood  style="flood-color:white;flood-opacity:1" result="back"/>
			<feBlend  in="source" in2="back" mode="normal"/>
		</filter>
	</defs>
	<mask maskUnits="userSpaceOnUse" x="42.592" y="144.656" width="216.525" height="140.063" id="SVGID_2_">
		<g filter="url(#Adobe_OpacityMaskFilter_1_)">
			<path fill="#FFFFFF" d="M103.474,160.579c-6.631,12.479-13.16,24.773-19.771,37.215h1.396c14.022,0,28.042,0.01,42.064-0.025
				c0.964-0.002,1.483,0.322,1.992,1.102c7.479,11.471,14.989,22.92,22.488,34.371c0.191,0.293,0.396,0.572,0.675,0.975
				c0.231-0.373,0.431-0.674,0.612-0.98c7.001-11.844,14.008-23.688,20.985-35.547c0.421-0.717,0.861-0.994,1.71-0.994
				c16.497,0.029,32.997,0.027,49.493,0.002c0.797,0,1.244,0.221,1.646,0.922c1.484,2.588,3.041,5.135,4.588,7.723
				c-0.477,0.264-0.895,0.15-1.291,0.15c-16.498,0.008-32.992,0.016-49.49-0.016c-0.885,0-1.351,0.264-1.797,1.025
				c-8.641,14.719-17.311,29.42-25.977,44.127c-0.125,0.207-0.257,0.408-0.421,0.664c-0.38-0.221-0.497-0.596-0.681-0.9
				c-8.746-14.414-17.488-28.828-26.202-43.262c-0.417-0.688-0.839-0.932-1.639-0.93c-16.812,0.025-33.622,0.018-50.432,0.018
				c-1.287,0-1.287,0-0.679-1.16c7.597-14.578,15.202-29.146,22.773-43.738c0.43-0.822,0.858-1.156,1.825-1.061
				C99.316,160.446,101.297,160.474,103.474,160.579"/>
		</g>
	</mask>
	<path mask="url(#SVGID_2_)" fill="#243F63" d="M211.67,180.679c4.479,0.018,8.959,0.041,13.436,0.047
		c2.467,0.002,4.934-0.02,7.396-0.029c2.133-0.439,3.197,0.596,4.234,2.428c7.104,12.549,14.344,25.021,21.539,37.516
		c0.254,0.447,0.5,0.904,0.842,1.527h-1.24c-23.016,0-46.029,0.004-69.047-0.02c-0.834-0.004-1.283,0.246-1.697,0.979
		c-11.392,20.207-22.809,40.398-34.222,60.594c-0.17,0.303-0.352,0.594-0.593,1c-0.447-0.736-0.838-1.381-1.226-2.025
		c-11.825-19.758-23.654-39.512-35.453-59.285c-0.538-0.906-1.092-1.273-2.184-1.271c-23.257,0.035-46.52,0.029-69.779,0.029
		c-1.301,0-1.301-0.002-0.684-1.166c10.839-20.387,21.671-40.777,32.535-61.15c0.466-0.871,0.478-1.494-0.035-2.355
		c-2.345-3.953-4.609-7.953-6.899-11.942c-0.151-0.266-0.287-0.539-0.479-0.896h64.075c-5.999,12.024-11.952,23.972-17.979,36.056
		c0.499,0.021,0.861,0.053,1.222,0.053c6.87,0.004,13.739,0.016,20.61-0.016c0.748-0.006,1.183,0.215,1.603,0.844
		c4.635,6.918,9.301,13.814,13.961,20.717c0.212,0.314,0.438,0.621,0.723,1.023c1.448-3.045,2.852-5.992,4.25-8.941
		c1.998-4.215,4.013-8.424,5.97-12.66c0.355-0.768,0.754-1.053,1.623-1.051c15.413,0.031,30.828,0.023,46.242,0.023
		C210.832,180.704,211.252,180.688,211.67,180.679"/>
	<path fill="#243F63" d="M152.335,23.605C162.8,43.856,173.2,63.986,183.617,84.152c-7.192,0.131-12.009,3.546-14.72,10.239
		c-5.523-11.539-11.001-22.983-16.561-34.587c-0.248,0.411-0.44,0.709-0.612,1.016c-9.421,16.563-18.846,33.121-28.239,49.695
		c-0.459,0.807-0.948,1.077-1.869,1.074c-16.81-0.03-33.618-0.021-50.428-0.021h-1.09c-0.224,0.294-0.022,0.448,0.08,0.61
		c1.359,2.15,2.736,4.29,4.076,6.451c0.271,0.437,0.567,0.603,1.084,0.603c17.228-0.015,34.455-0.019,51.685,0.009
		c0.673,0,0.894-0.368,1.182-0.813c7.799-12.011,15.603-24.017,23.405-36.023c0.208-0.319,0.426-0.63,0.725-1.072
		c0.436,0.764,0.817,1.444,1.205,2.122c3.466,6.082,6.914,12.177,10.421,18.237c0.6,1.035,0.748,2.079,0.889,3.239
		c0.313,2.57-0.564,4.359-2.583,5.972c-2.446,1.952-4.639,4.222-6.908,6.386c-0.492,0.471-0.71,0.463-1.031-0.141
		c-0.606-1.133-1.283-2.229-2.001-3.46c-0.433,0.67-0.805,1.243-1.173,1.815c-4.396,6.866-8.801,13.727-13.174,20.608
		c-0.398,0.626-0.806,0.887-1.573,0.887c-23.714-0.025-47.427-0.022-71.143,0c-0.752,0-1.18-0.226-1.589-0.857
		c-8.85-13.571-17.724-27.127-26.591-40.685c-0.162-0.256-0.415-0.476-0.413-0.924h1.114c24.411,0,48.824-0.008,73.235,0.021
		c1.02,0.002,1.581-0.257,2.108-1.191c12.836-22.913,25.712-45.803,38.583-68.696C151.882,24.366,152.063,24.069,152.335,23.605"/>
</g>
</svg>
