<svg width="42" height="44" viewBox="0 0 42 44" fill="none" xmlns="http://www.w3.org/2000/svg"><path d="M2.5 43C1.7973 42 3.35709 33.7358 3.35709 33.7358C2.3918 31.3624 0 28.964 0 19.8952C0 6.9348 10.8542 6.52147e-06 21.215 0C34.0427 -8.07417e-06 42.8371 11.1043 41.9367 22.3215C40.4566 40.761 21.215 43.6725 12.8277 40.761C12.8277 40.761 3.2027 44 2.5 43Z" fill="#BFD7EA"/><path d="M18.4634 16.5507C14.7951 13.404 9.29269 23.106 7 28.3505C7 32.2837 10.0569 28.3505 13.8781 25.204C17.6992 22.0575 17.6992 24.4173 22.2846 28.3505C26.8699 32.2837 29.1626 25.9908 32.9838 19.6974C36.0407 14.6627 35.2765 12.6174 32.9838 14.9773C31.9648 16.0262 29.1626 18.1239 26.8699 19.6973C24.0262 21.6488 22.9643 20.4116 18.4634 16.5507Z" fill="#0D1B1E"/></svg>