<svg width="24" height="24" viewBox="0 0 24 24" fill="none" xmlns="http://www.w3.org/2000/svg">
<path d="M7.12514 1C7.12514 1 8.041 1.86711 9.87272 3.89036C11.7044 5.91361 7.12515 7.90635 7.12515 9.09301C7.12515 10.2797 13.7383 16.3189 15.0626 16.3189C16.3869 16.3189 17.4275 13.8956 18.4207 13.7176C19.4139 13.5396 20.2524 14.2957 21.1683 15.1628C22.0841 16.0299 23 16.897 23 17.4751C23 18.0531 21.8346 20.4178 19.0313 21.5216C15.7986 22.7944 12.5213 21.3239 9.87272 19.4983C5.89076 16.7537 3.31117 14.1437 1.32472 8.80397C-0.173564 4.77646 3.81442 1.00001 7.12514 1Z" stroke="white" stroke-width="2"/>
</svg>
