<svg width="46" height="49" viewBox="0 0 46 49" fill="none" xmlns="http://www.w3.org/2000/svg"><path d="M17.8467 15C17.8467 15 18.721 15.7432 20.4694 17.4775C22.2179 19.2117 17.8467 20.9197 17.8467 21.9369C17.8467 22.954 24.1593 28.1305 25.4234 28.1305C26.6875 28.1305 27.6808 26.0534 28.6289 25.9008C29.5769 25.7482 30.3773 26.3963 31.2516 27.1395C32.1258 27.8827 33 28.626 33 29.1215C33 29.617 31.8876 31.6438 29.2117 32.5899C26.1259 33.6809 22.9976 32.4205 20.4694 30.8557C16.6685 28.5031 14.2061 26.266 12.31 21.6891C10.8798 18.237 14.6865 15 17.8467 15Z" stroke="#BFD7EA" stroke-width="1.5"/><path d="M3.7027 46L5.35709 35.7358C4.3918 33.3624 2 30.964 2 21.8952C2 8.93481 12.8542 2.00001 23.215 2C36.0427 1.99999 44.8371 13.1043 43.9367 24.3215C42.4566 42.761 23.215 45.6725 14.8277 42.761L3.7027 46Z" stroke="#BFD7EA" stroke-width="4"/></svg>