<svg width="149" height="146" viewBox="0 0 149 146" fill="none" xmlns="http://www.w3.org/2000/svg"><g filter="url(#filter0_d_374_18)"><rect x="6.5" y="2.5" width="114" height="133" rx="8.5" stroke="#0C2E35" stroke-width="5" shape-rendering="crispEdges"/></g><g filter="url(#filter1_d_374_18)"><path d="M12 51C51.443 51 73.557 51 113 51" stroke="#0C2E35" stroke-width="4"/></g><g filter="url(#filter2_d_374_18)"><path d="M12 63C51.443 63 73.557 63 113 63" stroke="#0C2E35" stroke-width="4"/></g><g filter="url(#filter3_d_374_18)"><path d="M12 73C51.443 73 73.557 73 113 73" stroke="#0C2E35" stroke-width="4"/></g><g filter="url(#filter4_d_374_18)"><path d="M12 83C51.443 83 73.557 83 113 83" stroke="#0C2E35" stroke-width="4"/></g><g filter="url(#filter5_d_374_18)"><path d="M12 103C43.2419 103 60.7581 103 92 103" stroke="#0C2E35" stroke-width="4"/></g><g filter="url(#filter6_d_374_18)"><path d="M12 92C51.443 92 73.557 92 113 92" stroke="#0C2E35" stroke-width="4"/></g><g filter="url(#filter7_d_374_18)"><ellipse cx="95" cy="73.5" rx="33" ry="33.5" fill="#0C2E35"/></g><g filter="url(#filter8_d_374_18)"><ellipse cx="96" cy="74.5" rx="28" ry="28.5" fill="#0C2E35"/><path d="M122.5 74.5C122.5 89.4368 110.611 101.5 96 101.5C81.3894 101.5 69.5 89.4368 69.5 74.5C69.5 59.5632 81.3894 47.5 96 47.5C110.611 47.5 122.5 59.5632 122.5 74.5Z" stroke="white" stroke-width="3"/></g><g filter="url(#filter9_d_374_18)"><path d="M110.56 108.006C117.237 104.823 120.181 102.093 124.121 95.676L139.54 112.634L125.979 124.964L110.56 108.006Z" fill="#0C2E35"/></g><g filter="url(#filter10_d_374_18)"><path d="M140.237 114L127 125.522C129.482 128.701 135.332 132.674 141.478 127.509C146.028 123.685 143.684 115.987 140.237 114Z" fill="#0C2E35"/><path d="M140.237 114L127 125.522C129.482 128.701 135.332 132.674 141.478 127.509C146.028 123.685 143.684 115.987 140.237 114Z" stroke="#0D1B1E"/></g><g filter="url(#filter11_d_374_18)"><path d="M30.2341 25.0024C39.8311 25.2406 48.3047 41.9801 38.9255 41.9801C29.5463 41.9801 33.8782 42.0249 30.2341 41.9801C26.5899 41.9352 31.2242 41.9801 21.2683 41.9801C11.3124 41.9801 20.6371 24.7643 30.2341 25.0024Z" fill="#0C2E35"/><path d="M30.1844 27.0018C32.0131 27.0472 33.9321 27.8905 35.7081 29.3156C37.4756 30.7339 38.9642 32.6231 39.9135 34.4879C40.8991 36.4239 41.1416 38.0017 40.9283 38.8975C40.8369 39.2815 40.6783 39.4897 40.4829 39.628C40.2639 39.783 39.8104 39.9801 38.9255 39.9801C32.9373 39.9801 32.5152 39.9981 32.0931 40C31.8474 40.0011 31.6017 39.9967 30.2587 39.9802C28.9428 39.964 28.6929 39.9595 28.4431 39.9604C28.0024 39.9619 27.5618 39.9801 21.2683 39.9801C20.2988 39.9801 19.7905 39.77 19.5402 39.5965C19.3196 39.4438 19.1571 39.2247 19.0671 38.8391C18.8544 37.928 19.1278 36.3168 20.1824 34.3453C21.1968 32.4489 22.7677 30.5431 24.5988 29.1438C26.4415 27.7356 28.3876 26.9572 30.1844 27.0018Z" stroke="#0C2E35" stroke-width="4"/></g><g filter="url(#filter12_d_374_18)"><path d="M26 38.3077L30.2353 29L34 38.3077L30.2353 40L26 38.3077Z" fill="white"/><path d="M26 38.3077L30.2353 29L34 38.3077L30.2353 40L26 38.3077Z" stroke="white"/></g><g filter="url(#filter13_d_374_18)"><circle cx="30" cy="16" r="8" fill="#0C2E35"/><circle cx="30" cy="16" r="6" stroke="#0C2E35" stroke-width="4"/></g><g filter="url(#filter14_d_374_18)"><path d="M30.2033 29.1582L27.7046 25.3505C27.7046 25.3505 27.7046 24.9339 30.2033 24.9339C32.7019 24.9339 32.8048 25.4618 32.8048 25.4618L30.2033 29.1582Z" fill="white"/></g><defs><filter id="filter0_d_374_18" x="0" y="0" width="127" height="146" filterUnits="userSpaceOnUse" color-interpolation-filters="sRGB"><feFlood flood-opacity="0" result="BackgroundImageFix"/><feColorMatrix in="SourceAlpha" type="matrix" values="0 0 0 0 0 0 0 0 0 0 0 0 0 0 0 0 0 0 127 0" result="hardAlpha"/><feOffset dy="4"/><feGaussianBlur stdDeviation="2"/><feComposite in2="hardAlpha" operator="out"/><feColorMatrix type="matrix" values="0 0 0 0 0 0 0 0 0 0 0 0 0 0 0 0 0 0 0.25 0"/><feBlend mode="normal" in2="BackgroundImageFix" result="effect1_dropShadow_374_18"/><feBlend mode="normal" in="SourceGraphic" in2="effect1_dropShadow_374_18" result="shape"/></filter><filter id="filter1_d_374_18" x="8" y="49" width="109" height="12" filterUnits="userSpaceOnUse" color-interpolation-filters="sRGB"><feFlood flood-opacity="0" result="BackgroundImageFix"/><feColorMatrix in="SourceAlpha" type="matrix" values="0 0 0 0 0 0 0 0 0 0 0 0 0 0 0 0 0 0 127 0" result="hardAlpha"/><feOffset dy="4"/><feGaussianBlur stdDeviation="2"/><feComposite in2="hardAlpha" operator="out"/><feColorMatrix type="matrix" values="0 0 0 0 0 0 0 0 0 0 0 0 0 0 0 0 0 0 0.25 0"/><feBlend mode="normal" in2="BackgroundImageFix" result="effect1_dropShadow_374_18"/><feBlend mode="normal" in="SourceGraphic" in2="effect1_dropShadow_374_18" result="shape"/></filter><filter id="filter2_d_374_18" x="8" y="61" width="109" height="12" filterUnits="userSpaceOnUse" color-interpolation-filters="sRGB"><feFlood flood-opacity="0" result="BackgroundImageFix"/><feColorMatrix in="SourceAlpha" type="matrix" values="0 0 0 0 0 0 0 0 0 0 0 0 0 0 0 0 0 0 127 0" result="hardAlpha"/><feOffset dy="4"/><feGaussianBlur stdDeviation="2"/><feComposite in2="hardAlpha" operator="out"/><feColorMatrix type="matrix" values="0 0 0 0 0 0 0 0 0 0 0 0 0 0 0 0 0 0 0.25 0"/><feBlend mode="normal" in2="BackgroundImageFix" result="effect1_dropShadow_374_18"/><feBlend mode="normal" in="SourceGraphic" in2="effect1_dropShadow_374_18" result="shape"/></filter><filter id="filter3_d_374_18" x="8" y="71" width="109" height="12" filterUnits="userSpaceOnUse" color-interpolation-filters="sRGB"><feFlood flood-opacity="0" result="BackgroundImageFix"/><feColorMatrix in="SourceAlpha" type="matrix" values="0 0 0 0 0 0 0 0 0 0 0 0 0 0 0 0 0 0 127 0" result="hardAlpha"/><feOffset dy="4"/><feGaussianBlur stdDeviation="2"/><feComposite in2="hardAlpha" operator="out"/><feColorMatrix type="matrix" values="0 0 0 0 0 0 0 0 0 0 0 0 0 0 0 0 0 0 0.25 0"/><feBlend mode="normal" in2="BackgroundImageFix" result="effect1_dropShadow_374_18"/><feBlend mode="normal" in="SourceGraphic" in2="effect1_dropShadow_374_18" result="shape"/></filter><filter id="filter4_d_374_18" x="8" y="81" width="109" height="12" filterUnits="userSpaceOnUse" color-interpolation-filters="sRGB"><feFlood flood-opacity="0" result="BackgroundImageFix"/><feColorMatrix in="SourceAlpha" type="matrix" values="0 0 0 0 0 0 0 0 0 0 0 0 0 0 0 0 0 0 127 0" result="hardAlpha"/><feOffset dy="4"/><feGaussianBlur stdDeviation="2"/><feComposite in2="hardAlpha" operator="out"/><feColorMatrix type="matrix" values="0 0 0 0 0 0 0 0 0 0 0 0 0 0 0 0 0 0 0.25 0"/><feBlend mode="normal" in2="BackgroundImageFix" result="effect1_dropShadow_374_18"/><feBlend mode="normal" in="SourceGraphic" in2="effect1_dropShadow_374_18" result="shape"/></filter><filter id="filter5_d_374_18" x="8" y="101" width="88" height="12" filterUnits="userSpaceOnUse" color-interpolation-filters="sRGB"><feFlood flood-opacity="0" result="BackgroundImageFix"/><feColorMatrix in="SourceAlpha" type="matrix" values="0 0 0 0 0 0 0 0 0 0 0 0 0 0 0 0 0 0 127 0" result="hardAlpha"/><feOffset dy="4"/><feGaussianBlur stdDeviation="2"/><feComposite in2="hardAlpha" operator="out"/><feColorMatrix type="matrix" values="0 0 0 0 0 0 0 0 0 0 0 0 0 0 0 0 0 0 0.25 0"/><feBlend mode="normal" in2="BackgroundImageFix" result="effect1_dropShadow_374_18"/><feBlend mode="normal" in="SourceGraphic" in2="effect1_dropShadow_374_18" result="shape"/></filter><filter id="filter6_d_374_18" x="8" y="90" width="109" height="12" filterUnits="userSpaceOnUse" color-interpolation-filters="sRGB"><feFlood flood-opacity="0" result="BackgroundImageFix"/><feColorMatrix in="SourceAlpha" type="matrix" values="0 0 0 0 0 0 0 0 0 0 0 0 0 0 0 0 0 0 127 0" result="hardAlpha"/><feOffset dy="4"/><feGaussianBlur stdDeviation="2"/><feComposite in2="hardAlpha" operator="out"/><feColorMatrix type="matrix" values="0 0 0 0 0 0 0 0 0 0 0 0 0 0 0 0 0 0 0.25 0"/><feBlend mode="normal" in2="BackgroundImageFix" result="effect1_dropShadow_374_18"/><feBlend mode="normal" in="SourceGraphic" in2="effect1_dropShadow_374_18" result="shape"/></filter><filter id="filter7_d_374_18" x="58" y="40" width="74" height="75" filterUnits="userSpaceOnUse" color-interpolation-filters="sRGB"><feFlood flood-opacity="0" result="BackgroundImageFix"/><feColorMatrix in="SourceAlpha" type="matrix" values="0 0 0 0 0 0 0 0 0 0 0 0 0 0 0 0 0 0 127 0" result="hardAlpha"/><feOffset dy="4"/><feGaussianBlur stdDeviation="2"/><feComposite in2="hardAlpha" operator="out"/><feColorMatrix type="matrix" values="0 0 0 0 0 0 0 0 0 0 0 0 0 0 0 0 0 0 0.25 0"/><feBlend mode="normal" in2="BackgroundImageFix" result="effect1_dropShadow_374_18"/><feBlend mode="normal" in="SourceGraphic" in2="effect1_dropShadow_374_18" result="shape"/></filter><filter id="filter8_d_374_18" x="64" y="46" width="64" height="65" filterUnits="userSpaceOnUse" color-interpolation-filters="sRGB"><feFlood flood-opacity="0" result="BackgroundImageFix"/><feColorMatrix in="SourceAlpha" type="matrix" values="0 0 0 0 0 0 0 0 0 0 0 0 0 0 0 0 0 0 127 0" result="hardAlpha"/><feOffset dy="4"/><feGaussianBlur stdDeviation="2"/><feComposite in2="hardAlpha" operator="out"/><feColorMatrix type="matrix" values="0 0 0 0 0 0 0 0 0 0 0 0 0 0 0 0 0 0 0.25 0"/><feBlend mode="normal" in2="BackgroundImageFix" result="effect1_dropShadow_374_18"/><feBlend mode="normal" in="SourceGraphic" in2="effect1_dropShadow_374_18" result="shape"/></filter><filter id="filter9_d_374_18" x="106.56" y="95.676" width="36.9796" height="37.2881" filterUnits="userSpaceOnUse" color-interpolation-filters="sRGB"><feFlood flood-opacity="0" result="BackgroundImageFix"/><feColorMatrix in="SourceAlpha" type="matrix" values="0 0 0 0 0 0 0 0 0 0 0 0 0 0 0 0 0 0 127 0" result="hardAlpha"/><feOffset dy="4"/><feGaussianBlur stdDeviation="2"/><feComposite in2="hardAlpha" operator="out"/><feColorMatrix type="matrix" values="0 0 0 0 0 0 0 0 0 0 0 0 0 0 0 0 0 0 0.25 0"/><feBlend mode="normal" in2="BackgroundImageFix" result="effect1_dropShadow_374_18"/><feBlend mode="normal" in="SourceGraphic" in2="effect1_dropShadow_374_18" result="shape"/></filter><filter id="filter10_d_374_18" x="122.314" y="113.389" width="26.1854" height="25.1113" filterUnits="userSpaceOnUse" color-interpolation-filters="sRGB"><feFlood flood-opacity="0" result="BackgroundImageFix"/><feColorMatrix in="SourceAlpha" type="matrix" values="0 0 0 0 0 0 0 0 0 0 0 0 0 0 0 0 0 0 127 0" result="hardAlpha"/><feOffset dy="4"/><feGaussianBlur stdDeviation="2"/><feComposite in2="hardAlpha" operator="out"/><feColorMatrix type="matrix" values="0 0 0 0 0 0 0 0 0 0 0 0 0 0 0 0 0 0 0.25 0"/><feBlend mode="normal" in2="BackgroundImageFix" result="effect1_dropShadow_374_18"/><feBlend mode="normal" in="SourceGraphic" in2="effect1_dropShadow_374_18" result="shape"/></filter><filter id="filter11_d_374_18" x="13" y="25" width="34" height="25" filterUnits="userSpaceOnUse" color-interpolation-filters="sRGB"><feFlood flood-opacity="0" result="BackgroundImageFix"/><feColorMatrix in="SourceAlpha" type="matrix" values="0 0 0 0 0 0 0 0 0 0 0 0 0 0 0 0 0 0 127 0" result="hardAlpha"/><feOffset dy="4"/><feGaussianBlur stdDeviation="2"/><feComposite in2="hardAlpha" operator="out"/><feColorMatrix type="matrix" values="0 0 0 0 0 0 0 0 0 0 0 0 0 0 0 0 0 0 0.25 0"/><feBlend mode="normal" in2="BackgroundImageFix" result="effect1_dropShadow_374_18"/><feBlend mode="normal" in="SourceGraphic" in2="effect1_dropShadow_374_18" result="shape"/></filter><filter id="filter12_d_374_18" x="21.3279" y="27.7334" width="17.3161" height="20.8096" filterUnits="userSpaceOnUse" color-interpolation-filters="sRGB"><feFlood flood-opacity="0" result="BackgroundImageFix"/><feColorMatrix in="SourceAlpha" type="matrix" values="0 0 0 0 0 0 0 0 0 0 0 0 0 0 0 0 0 0 127 0" result="hardAlpha"/><feOffset dy="4"/><feGaussianBlur stdDeviation="2"/><feComposite in2="hardAlpha" operator="out"/><feColorMatrix type="matrix" values="0 0 0 0 0 0 0 0 0 0 0 0 0 0 0 0 0 0 0.25 0"/><feBlend mode="normal" in2="BackgroundImageFix" result="effect1_dropShadow_374_18"/><feBlend mode="normal" in="SourceGraphic" in2="effect1_dropShadow_374_18" result="shape"/></filter><filter id="filter13_d_374_18" x="18" y="8" width="24" height="24" filterUnits="userSpaceOnUse" color-interpolation-filters="sRGB"><feFlood flood-opacity="0" result="BackgroundImageFix"/><feColorMatrix in="SourceAlpha" type="matrix" values="0 0 0 0 0 0 0 0 0 0 0 0 0 0 0 0 0 0 127 0" result="hardAlpha"/><feOffset dy="4"/><feGaussianBlur stdDeviation="2"/><feComposite in2="hardAlpha" operator="out"/><feColorMatrix type="matrix" values="0 0 0 0 0 0 0 0 0 0 0 0 0 0 0 0 0 0 0.25 0"/><feBlend mode="normal" in2="BackgroundImageFix" result="effect1_dropShadow_374_18"/><feBlend mode="normal" in="SourceGraphic" in2="effect1_dropShadow_374_18" result="shape"/></filter><filter id="filter14_d_374_18" x="23.7046" y="24.9338" width="13.1002" height="12.2244" filterUnits="userSpaceOnUse" color-interpolation-filters="sRGB"><feFlood flood-opacity="0" result="BackgroundImageFix"/><feColorMatrix in="SourceAlpha" type="matrix" values="0 0 0 0 0 0 0 0 0 0 0 0 0 0 0 0 0 0 127 0" result="hardAlpha"/><feOffset dy="4"/><feGaussianBlur stdDeviation="2"/><feComposite in2="hardAlpha" operator="out"/><feColorMatrix type="matrix" values="0 0 0 0 0 0 0 0 0 0 0 0 0 0 0 0 0 0 0.25 0"/><feBlend mode="normal" in2="BackgroundImageFix" result="effect1_dropShadow_374_18"/><feBlend mode="normal" in="SourceGraphic" in2="effect1_dropShadow_374_18" result="shape"/></filter></defs></svg>