<svg width="104" height="99" viewBox="0 0 104 99" fill="none" xmlns="http://www.w3.org/2000/svg">
<circle cx="43" cy="56" r="43" fill="#1F5460"/>
<circle cx="43.5" cy="56.5" r="35.5" fill="#DDE8F1"/>
<circle cx="43.5" cy="56.5" r="28.5" fill="#82A6C2" fill-opacity="0.8"/>
<circle cx="44" cy="56" r="20" fill="#BFD7EA" fill-opacity="0.7"/>
<circle cx="43.5" cy="56.5" r="5.5" fill="#0C2E35"/>
<path d="M79.1616 2L82.5 9L90.1515 10.8923L68 26.5846L79.1616 2Z" fill="#0C2E35"/>
<path d="M95.303 16.9949L96 24L102 28.1538L76.5859 36L95.303 16.9949Z" fill="#0C2E35"/>
<path d="M79.1616 2L82.5 9L90.1515 10.8923L68 26.5846L79.1616 2Z" stroke="#0C2E35"/>
<path d="M95.303 16.9949L96 24L102 28.1538L76.5859 36L95.303 16.9949Z" stroke="#0C2E35"/>
<path d="M42.6159 56.6799L83 8.5" stroke="black"/>
<line x1="42.7393" y1="56.5734" x2="96.7393" y2="23.5734" stroke="black"/>
</svg>
