<svg width="83" height="69" viewBox="0 0 83 69" fill="none" xmlns="http://www.w3.org/2000/svg">
<rect x="40.5" y="0.5" width="3" height="59" fill="#1F5460" stroke="#1F5460"/>
<path d="M26.5 68.5V64.3687L42.1651 59.5238L57.5 64.3664V68.5H26.5Z" fill="#1F5460" stroke="#1F5460"/>
<path d="M42.029 5L43.4504 4.52082L41.9826 0.166737L40.5986 4.54822L42.029 5ZM9.00282 15.5516C16.4237 22.1554 24.0028 23.2291 30.3443 20.6684C36.5774 18.1514 41.3145 12.2422 43.4593 5.45178L40.5986 4.54822C38.6613 10.6818 34.4492 15.7754 29.221 17.8866C24.101 19.9541 17.7067 19.2813 10.9972 13.3105L9.00282 15.5516ZM40.6076 5.47918C43.0855 12.8296 48.5592 18.8888 55.1669 21.3389C61.8854 23.83 69.5854 22.5117 76.1024 15.4482L73.8976 13.4139C68.1683 19.6236 61.7378 20.5757 56.2099 18.526C50.5713 16.4353 45.6826 11.1423 43.4504 4.52082L40.6076 5.47918Z" fill="#1F5460"/>
<path d="M10.4465 14.3804L1 38.2321" stroke="#1F5460" stroke-width="2"/>
<path d="M10.4474 14.3516L17.6807 38.2323" stroke="#1F5460" stroke-width="2"/>
<path d="M18.0002 38.2227H1.00018C1.54274 40.5445 3.62252 44.6078 10.7661 44.1932C15.9642 43.8915 17.759 40.2128 18.0002 38.2227Z" fill="#1F5460" stroke="#1F5460"/>
<path d="M74.5868 15.1157L65.1402 38.9675" stroke="#1F5460" stroke-width="2"/>
<path d="M74.588 15L81.8212 38.8807" stroke="#1F5460" stroke-width="2"/>
<path d="M82 38.3516H65C65.5426 40.6734 67.6223 44.7367 74.766 44.3221C79.9641 44.0204 81.7589 40.3417 82 38.3516Z" fill="#1F5460" stroke="#1F5460"/>
</svg>
