<svg width="86" height="91" viewBox="0 0 86 91" fill="none" xmlns="http://www.w3.org/2000/svg">
<circle cx="42.5" cy="48.5" r="42" fill="#82C6B9" stroke="#C2E4DE"/>
<path d="M56.3226 63.5965C54.5944 65.3142 40.8159 63.5496 37.3822 59.5189C34.6351 56.2943 24.3683 58.1394 19.5782 59.465L19.5434 70.9515C21.8407 70.9584 26.0935 70.0523 29.3069 70.981C32.5203 71.9096 35.6129 74.8289 37.3318 76.1742C40.9686 76.3767 50.5398 76.6736 55.1357 76.2281C59.7317 75.7825 68.3834 63.633 67.2417 61.3322C66.1 59.0314 63.9959 58.4508 62.078 59.5936C59.2012 61.3079 57.7052 62.2223 56.3226 63.5965ZM56.3226 63.5965C59.5291 66.8224 56.1132 69.5306 54.0062 69.9071C52.0918 69.9013 47.2292 69.8866 43.0941 69.8741C38.959 69.8615 36.4041 66.4078 35.6436 64.6826" stroke="white" stroke-width="2"/>
<path d="M25.4022 29.7789C22.3838 39.1127 37.0724 50.1426 45.4902 55C65.5784 46.0325 69.0221 31.4604 63.8566 25.8557C56.4812 17.8532 48.934 24.1743 46.0642 28.0976C42.0466 21.372 28.8459 19.1301 25.4022 29.7789Z" stroke="white" stroke-width="2"/>
</svg>
