<svg width="48" height="53" viewBox="0 0 48 53" fill="none" xmlns="http://www.w3.org/2000/svg">
<g filter="url(#filter0_d_207_60)">
<path d="M33.9405 33.8365C32.5813 35.1875 21.7442 33.7996 19.0435 30.6294C16.8829 28.0932 8.80776 29.5444 5.04027 30.587L5.01293 39.6213C6.8198 39.6268 10.1647 38.9142 12.6921 39.6446C15.2195 40.375 17.6519 42.671 19.0038 43.7291C21.8643 43.8884 29.3922 44.122 33.007 43.7715C36.6219 43.4211 43.4266 33.8652 42.5286 32.0556C41.6307 30.246 39.9757 29.7893 38.4673 30.6881C36.2046 32.0365 35.0279 32.7556 33.9405 33.8365ZM33.9405 33.8365C36.4625 36.3738 33.7759 38.5038 32.1187 38.7999C30.6129 38.7953 26.7884 38.7838 23.536 38.7739C20.2837 38.7641 18.2742 36.0477 17.676 34.6907" stroke="white" stroke-width="2" shape-rendering="crispEdges"/>
</g>
<g filter="url(#filter1_d_207_60)">
<path d="M8.7697 7.12886C6.34027 14.4827 18.1628 23.173 24.9381 27C41.1067 19.9347 43.8784 8.45362 39.7208 4.0378C33.7845 -2.26718 27.7099 2.71309 25.4001 5.80415C22.1664 0.505194 11.5414 -1.26117 8.7697 7.12886Z" stroke="white" stroke-width="2" shape-rendering="crispEdges"/>
</g>
<defs>
<filter id="filter0_d_207_60" x="0.00991821" y="28.2177" width="47.5995" height="24.7364" filterUnits="userSpaceOnUse" color-interpolation-filters="sRGB">
<feFlood flood-opacity="0" result="BackgroundImageFix"/>
<feColorMatrix in="SourceAlpha" type="matrix" values="0 0 0 0 0 0 0 0 0 0 0 0 0 0 0 0 0 0 127 0" result="hardAlpha"/>
<feOffset dy="4"/>
<feGaussianBlur stdDeviation="2"/>
<feComposite in2="hardAlpha" operator="out"/>
<feColorMatrix type="matrix" values="0 0 0 0 0 0 0 0 0 0 0 0 0 0 0 0 0 0 0.25 0"/>
<feBlend mode="normal" in2="BackgroundImageFix" result="effect1_dropShadow_207_60"/>
<feBlend mode="normal" in="SourceGraphic" in2="effect1_dropShadow_207_60" result="shape"/>
</filter>
<filter id="filter1_d_207_60" x="3.44577" y="-3.05176e-05" width="42.9996" height="36.1163" filterUnits="userSpaceOnUse" color-interpolation-filters="sRGB">
<feFlood flood-opacity="0" result="BackgroundImageFix"/>
<feColorMatrix in="SourceAlpha" type="matrix" values="0 0 0 0 0 0 0 0 0 0 0 0 0 0 0 0 0 0 127 0" result="hardAlpha"/>
<feOffset dy="4"/>
<feGaussianBlur stdDeviation="2"/>
<feComposite in2="hardAlpha" operator="out"/>
<feColorMatrix type="matrix" values="0 0 0 0 0 0 0 0 0 0 0 0 0 0 0 0 0 0 0.25 0"/>
<feBlend mode="normal" in2="BackgroundImageFix" result="effect1_dropShadow_207_60"/>
<feBlend mode="normal" in="SourceGraphic" in2="effect1_dropShadow_207_60" result="shape"/>
</filter>
</defs>
</svg>
