<svg width="95" height="94" viewBox="0 0 95 94" fill="none" xmlns="http://www.w3.org/2000/svg">
<path d="M18.9528 55.8L22.3113 65.019L13.9151 75.0762L18.9528 82.619L30.7075 74.2381L39.9434 75.0762L42.4623 91H52.5377L55.0566 74.2381L63.4528 72.5619L75.2075 80.1048L81.9245 74.2381L75.2075 60.8286L77.7264 53.2857L92 50.7714V42.3905L77.7264 39.0381L75.2075 29.819L81.9245 18.9238L75.2075 13.0571L63.4528 22.2762L55.0566 18.9238V3H42.4623V18.9238L34.066 22.2762L20.6321 13.0571L13.9151 18.9238L22.3113 32.3333L20.6321 39.0381L3 42.3905V53.2857L18.9528 55.8Z" stroke="white" stroke-width="5"/>
</svg>
