<svg width="115" height="49" viewBox="0 0 115 49" fill="none" xmlns="http://www.w3.org/2000/svg">
<path d="M86.8545 16.1987C82.9161 20.1133 51.5159 16.0918 43.6906 6.90617C37.4304 -0.442327 14.0329 3.76246 3.11666 6.78341L3.03746 32.9602C8.27281 32.976 17.9645 30.9111 25.2877 33.0275C32.6108 35.1438 39.6585 41.7966 43.5758 44.8624C51.8638 45.3238 73.6759 46.0006 84.1497 44.9852C94.6236 43.9698 114.34 16.2819 111.738 11.0386C109.136 5.79532 104.341 4.47197 99.9706 7.07645C93.4146 10.9832 90.0052 13.067 86.8545 16.1987ZM86.8545 16.1987C94.1618 23.5504 86.3773 29.722 81.5756 30.5801C77.2128 30.5669 66.1313 30.5333 56.7077 30.5048C47.2841 30.4763 41.4617 22.6056 39.7285 18.6738" stroke="white" stroke-width="5"/>
</svg>
