<svg width="58" height="51" viewBox="0 0 58 51" fill="none" xmlns="http://www.w3.org/2000/svg">
<path d="M12.023 12C12.023 12 13.5216 13.4452 16.519 16.8173C19.5163 20.1894 12.023 23.5106 12.023 25.4883C12.023 27.4661 22.8445 37.5315 25.0115 37.5315C27.1785 37.5315 28.8814 33.4926 30.5066 33.196C32.1319 32.8993 33.504 34.1594 35.0027 35.6046C36.5013 37.0498 38 38.495 38 39.4584C38 40.4219 36.093 44.363 31.5057 46.2026C26.2159 48.3239 20.853 45.8731 16.519 42.8305C10.0031 38.2561 5.78192 33.9062 2.53136 25.0066C0.079623 18.2941 6.60541 12 12.023 12Z" stroke="#82C6B9" stroke-width="3"/>
<path d="M23.4427 16.7532C30.94 17.2832 34.3343 21.1813 34.9945 29.3963" stroke="#82C6B9" stroke-width="2" stroke-linecap="round"/>
<path d="M23.0462 11.2779C34.2186 12.0677 41.5972 19.007 40.2606 30.1186" stroke="#82C6B9" stroke-width="2" stroke-linecap="round"/>
<path d="M23.6498 4.79041C38.7191 5.85569 48.6713 15.2154 46.8685 30.2026" stroke="#82C6B9" stroke-width="2" stroke-linecap="round"/>
</svg>
