<svg width="57" height="51" viewBox="0 0 57 51" fill="none" xmlns="http://www.w3.org/2000/svg">
<path d="M11.023 12C11.023 12 12.5216 13.4452 15.519 16.8173C18.5163 20.1894 11.023 23.5106 11.023 25.4883C11.023 27.4661 21.8445 37.5315 24.0115 37.5315C26.1785 37.5315 27.8814 33.4926 29.5066 33.196C31.1319 32.8993 32.504 34.1594 34.0027 35.6046C35.5013 37.0498 37 38.495 37 39.4584C37 40.4219 35.093 44.363 30.5057 46.2026C25.2159 48.3239 19.853 45.8731 15.519 42.8305C9.00307 38.2561 4.78192 33.9062 1.53136 25.0066C-0.920377 18.2941 5.60541 12 11.023 12Z" stroke="#C2E4DE" stroke-width="2"/>
<path d="M22.4427 16.7532C29.94 17.2832 33.3343 21.1813 33.9945 29.3963" stroke="#C2E4DE" stroke-width="2" stroke-linecap="round"/>
<path d="M22.0462 11.2779C33.2186 12.0677 40.5972 19.007 39.2606 30.1186" stroke="#C2E4DE" stroke-width="2" stroke-linecap="round"/>
<path d="M22.6498 4.79041C37.7191 5.85569 47.6713 15.2154 45.8685 30.2026" stroke="#C2E4DE" stroke-width="2" stroke-linecap="round"/>
</svg>
