<svg width="18" height="18" viewBox="0 0 18 18" fill="none" xmlns="http://www.w3.org/2000/svg">
<path d="M5.45465 1C5.45465 1 6.12073 1.66065 7.45289 3.20218C8.78504 4.7437 5.45465 6.26198 5.45465 7.1661C5.45465 8.07022 10.2642 12.6715 11.2273 12.6715C12.1904 12.6715 12.9473 10.8252 13.6696 10.6896C14.392 10.554 15.0018 11.13 15.6678 11.7907C16.3339 12.4513 17 13.112 17 13.5524C17 13.9929 16.1524 15.7945 14.1137 16.6355C11.7626 17.6052 9.37912 16.4849 7.45289 15.0939C4.55692 13.0028 2.68085 11.0143 1.23616 6.94588C0.146499 3.8773 3.04685 1.00001 5.45465 1Z" stroke="white"/>
</svg>
