<svg width="19" height="16" viewBox="0 0 19 16" fill="none" xmlns="http://www.w3.org/2000/svg">
<path d="M4.34099 4C4.34099 4 4.84055 4.4542 5.83966 5.514C6.83878 6.5738 4.34099 7.61761 4.34099 8.23919C4.34099 8.86078 7.94816 12.0242 8.67049 12.0242C9.39283 12.0242 9.96046 10.7548 10.5022 10.6616C11.044 10.5684 11.5013 10.9644 12.0009 11.4186C12.5004 11.8728 13 12.327 13 12.6298C13 12.9326 12.3643 14.1712 10.8352 14.7494C9.07195 15.4161 7.28434 14.6458 5.83967 13.6896C3.66769 12.2519 2.26064 10.8848 1.17712 8.08779C0.359874 5.97815 2.53514 4 4.34099 4Z" stroke="#C2E4DE"/>
<path d="M7.90608 5.3957C10.3207 5.56639 11.4139 6.82186 11.6266 9.46766" stroke="#C2E4DE" stroke-linecap="round"/>
<path d="M7.77837 3.63228C11.3767 3.88665 13.7531 6.12158 13.3226 9.70029" stroke="#C2E4DE" stroke-linecap="round"/>
<path d="M7.97277 1.54285C12.8261 1.88594 16.0314 4.90042 15.4508 9.72737" stroke="#C2E4DE" stroke-linecap="round"/>
</svg>
