<svg width="115" height="147" viewBox="0 0 115 147" fill="none" xmlns="http://www.w3.org/2000/svg">
<path d="M86.8545 114.199C82.9161 118.113 51.5159 114.092 43.6906 104.906C37.4304 97.5577 14.0329 101.762 3.11666 104.783L3.03746 130.96C8.27281 130.976 17.9645 128.911 25.2877 131.027C32.6108 133.144 39.6585 139.797 43.5758 142.862C51.8638 143.324 73.6759 144.001 84.1497 142.985C94.6236 141.97 114.34 114.282 111.738 109.039C109.136 103.795 104.341 102.472 99.9706 105.076C93.4146 108.983 90.0052 111.067 86.8545 114.199ZM86.8545 114.199C94.1618 121.55 86.3773 127.722 81.5756 128.58C77.2128 128.567 66.1313 128.533 56.7077 128.505C47.2841 128.476 41.4617 120.606 39.7285 116.674" stroke="white" stroke-width="5"/>
<path d="M34.9528 55.8L38.3113 65.019L29.9151 75.0762L34.9528 82.619L46.7075 74.2381L55.9434 75.0762L58.4623 91H68.5377L71.0566 74.2381L79.4528 72.5619L91.2075 80.1048L97.9245 74.2381L91.2075 60.8286L93.7264 53.2857L108 50.7714V42.3905L93.7264 39.0381L91.2075 29.819L97.9245 18.9238L91.2075 13.0571L79.4528 22.2762L71.0566 18.9238V3H58.4623V18.9238L50.066 22.2762L36.6321 13.0571L29.9151 18.9238L38.3113 32.3333L36.6321 39.0381L19 42.3905V53.2857L34.9528 55.8Z" stroke="white" stroke-width="5"/>
<circle cx="64" cy="48" r="15.5" stroke="white" stroke-width="5"/>
</svg>
